<svg xmlns="http://www.w3.org/2000/svg" id="freepik_stories-app-development" class="animated" version="1.1" viewBox="0 0 500 500"><defs/><style>@keyframes zoomIn{0%{opacity:0;transform:scale(.5)}to{opacity:1;transform:scale(1)}}@keyframes wind{0%{transform:rotate(0deg)}25%{transform:rotate(1deg)}75%{transform:rotate(-1deg)}}@keyframes slideLeft{0%{opacity:0;transform:translateX(-30px)}to{opacity:1;transform:translateX(0)}}@keyframes slideRight{0%{opacity:0;transform:translateX(30px)}to{opacity:1;transform:translateX(0)}}@keyframes floating{0%,to{opacity:1;transform:translateY(0)}50%{transform:translateY(-10px)}}svg#freepik_stories-app-development:not(.animated) .animable{opacity:0}</style><g id="freepik--background-simple--inject-69" class="animable" style="transform-origin:249.454px 249.003px;animation:1s 1 forwards cubic-bezier(.36,-.01,.5,1.38) zoomIn,1.5s Infinite linear wind;animation-delay:0s,1s"><path id="el8vzmd1pqvz9" fill="#ffde34" d="M439 430a58 58 0 0013-12c29-34 28-83 26-125-2-50-11-100-36-144-25-42-62-78-108-97a204 204 0 00-40-12 160 160 0 00-75 4 229 229 0 00-28 10c-61 27-69 83-93 139-16 39-56 65-72 105-19 44 11 93 49 117a152 152 0 0028 13c91 34 193 44 288 20 16-5 34-9 48-18z" class="animable" style="transform-origin:249.454px 249.003px"/><path id="eltxdu5zqqn0n" fill="#fff" d="M439 430a58 58 0 0013-12c29-34 28-83 26-125-2-50-11-100-36-144-25-42-62-78-108-97a204 204 0 00-40-12 160 160 0 00-75 4 229 229 0 00-28 10c-61 27-69 83-93 139-16 39-56 65-72 105-19 44 11 93 49 117a152 152 0 0028 13c91 34 193 44 288 20 16-5 34-9 48-18z" class="animable" opacity=".7" style="transform-origin:249.454px 249.003px"/></g><g id="freepik--Graphics--inject-69" class="animable" style="transform-origin:205.935px 233.245px"><g id="elomo54iftoob" class="animable" opacity=".3" style="transform-origin:205.935px 233.245px"><circle id="elfj00x9n5ijq" cx="380.8" cy="115.3" r="3.8" fill="none" stroke="#000" stroke-linecap="round" stroke-linejoin="round" class="animable" style="transform-origin:380.81px 115.31px"/><circle id="elwuxd5dyg9z" cx="45.6" cy="180.3" r="3.8" fill="none" stroke="#000" stroke-linecap="round" stroke-linejoin="round" class="animable" style="transform-origin:45.61px 180.25px"/><circle id="elbptx62jzu" cx="333.1" cy="377.9" r="3.8" fill="none" stroke="#000" stroke-linecap="round" stroke-linejoin="round" class="animable" style="transform-origin:333.06px 377.92px"/><circle id="el3peyjjg9a1q" cx="52.3" cy="346.4" r="3.8" fill="none" stroke="#000" stroke-linecap="round" stroke-linejoin="round" class="animable" style="transform-origin:52.3px 346.41px"/><path id="elds3u7dw6exm" fill="none" stroke="#000" stroke-linecap="round" stroke-linejoin="round" d="M311 182l-8 8" class="animable" style="transform-origin:307.275px 185.975px"/><path id="eliw4bck8rnz" fill="none" stroke="#000" stroke-linecap="round" stroke-linejoin="round" d="M311 190l-8-8" class="animable" style="transform-origin:307.275px 185.975px"/><path id="elzjgg8mqqh0i" fill="none" stroke="#000" stroke-linecap="round" stroke-linejoin="round" d="M282 415l8 8" class="animable" style="transform-origin:286.265px 418.99px"/><path id="elphm3gps81pn" fill="none" stroke="#000" stroke-linecap="round" stroke-linejoin="round" d="M290 415l-8 8" class="animable" style="transform-origin:286.265px 418.99px"/><path id="elq4dld45d0ue" fill="none" stroke="#000" stroke-linecap="round" stroke-linejoin="round" d="M27 233l8 8" class="animable" style="transform-origin:31.29px 236.59px"/><path id="el9efnk73kv68" fill="none" stroke="#000" stroke-linecap="round" stroke-linejoin="round" d="M35 233l-8 8" class="animable" style="transform-origin:31.29px 236.59px"/><path id="elkbke19wgf6r" fill="none" stroke="#000" stroke-linecap="round" stroke-linejoin="round" d="M326 44l8 8" class="animable" style="transform-origin:330.195px 47.505px"/><path id="elgzor2xhay9" fill="none" stroke="#000" stroke-linecap="round" stroke-linejoin="round" d="M334 44l-8 8" class="animable" style="transform-origin:330.195px 47.505px"/><path id="el5or6ypeaezr" fill="none" stroke="#000" stroke-linecap="round" stroke-linejoin="round" d="M129 50l9 8" class="animable" style="transform-origin:133.47px 54.19px"/><path id="eldt34g15wpu" fill="none" stroke="#000" stroke-linecap="round" stroke-linejoin="round" d="M138 50l-9 8" class="animable" style="transform-origin:133.47px 54.19px"/></g></g><g id="freepik--Gears--inject-69" class="animable" style="transform-origin:185.035px 260.1px"><path id="el8d3673z3z2f" fill="none" stroke="#000" stroke-linecap="round" stroke-linejoin="round" d="M73 406l3-8-6-3-5 6a17 17 0 00-4 0l-4-7-6 2 1 7a17 17 0 00-3 3l-8-3-3 6 6 5a17 17 0 000 4l-7 4 2 6 7-1a17 17 0 003 3l-3 8 6 3 5-6a17 17 0 004 0l3 7 7-2-1-7a17 17 0 003-3l8 3 3-6-6-5a17 17 0 000-4l7-3-2-7-7 1-1-1m-22 17a11 11 0 114 3" class="animable" opacity=".3" style="transform-origin:60.91px 418.035px"/><path id="elmzvobxjo48d" fill="none" stroke="#000" stroke-linecap="round" stroke-linejoin="round" d="M49 388l4 2 4-4a11 11 0 002 0l2 5 5-1-1-5a12 12 0 002-2l5 2 2-4-4-4a11 11 0 001-2l4-3-1-4-5 1a12 12 0 00-2-2l2-5-4-2-3 4a11 11 0 00-3-1l-2-4-5 1 1 5a11 11 0 00-2 2l-5-2-2 4 4 3a12 12 0 000 3l-5 2 1 5 5-1a12 12 0 002 2zm12-6a7 7 0 115-4 7 7 0 01-1 1" class="animable" opacity=".3" style="transform-origin:59.165px 374.875px"/><path id="ely89awsw7fdb" fill="none" stroke="#000" stroke-linecap="round" stroke-linejoin="round" d="M321 125l3-7-6-4-5 7a17 17 0 00-4-1l-3-7-7 2 1 8a17 17 0 00-3 2l-7-2-4 6 6 4a17 17 0 000 4l-7 4 2 6 8-1a17 17 0 002 4l-2 7 6 3 4-6a17 17 0 004 0l4 7 6-1-1-8a17 17 0 003-3l8 3 3-6-6-5a18 18 0 000-4l7-3-2-7-7 1-1-1m-22 17a11 11 0 115 4" class="animable" opacity=".3" style="transform-origin:309.16px 137.26px"/><path id="elj7ubnkal0o" fill="none" stroke="#000" stroke-linecap="round" stroke-linejoin="round" d="M298 107l4 2 3-4a11 11 0 003 1l2 4 4-1v-5a11 11 0 002-2l5 2 2-4-4-3a12 12 0 000-3l5-2-2-5-5 1a11 11 0 00-1-2l1-5-4-2-3 4a11 11 0 00-3 0l-2-5-4 1v5a12 12 0 00-2 2l-5-2-2 4 4 3a12 12 0 000 3l-5 2 2 5 5-1a12 12 0 001 2zm12-6a7 7 0 114-3 6 6 0 01-1 1" class="animable" opacity=".3" style="transform-origin:307.44px 94.145px"/></g><g id="freepik--Floor--inject-69" class="animable" style="transform-origin:250.28px 453.07px"><path id="el3zb3k43mbc2" fill="none" stroke="#263238" stroke-linecap="round" stroke-linejoin="round" d="M31 453h438" class="animable" style="transform-origin:250.28px 453.07px"/></g><g id="freepik--Device--inject-69" class="animable" style="transform-origin:164.82px 265.96px;animation:1s 1 forwards cubic-bezier(.36,-.01,.5,1.38) slideLeft;animation-delay:0s"><rect id="elx8k8jjz5gwl" width="363.2" height="187.3" x="-17" y="172" fill="#fff" class="animable" rx="20.5" style="transform-origin:164.35px 265.965px" transform="rotate(-90)"/><path id="elxp3oun3gin" fill="#d6d6d6" d="M258 104a19 19 0 00-4-12c-10 4-23 14-41 34-37 43-48 148-92 194-19 20-37 32-50 39v69a20 20 0 0019 19h138l2-3 28-36z" class="animable" style="transform-origin:164.345px 269.54px"/><path id="eln7a8aenab2" fill="#d6d6d6" d="M71 104v84c15-7 33-20 47-45 13-24 30-45 44-59H90a20 20 0 00-19 20z" class="animable" style="transform-origin:116.345px 136.04px"/><path id="elzvdqe17977" fill="#263238" d="M85 92l-2 5h2v1h-3v-1l2-5-1-1v2h-1v-1l1-2c2 0 2 1 2 2z" class="animable" style="transform-origin:83.51px 94.08px"/><path id="elt9gy7437mk" fill="#263238" d="M89 92a1 1 0 01-1 2 1 1 0 011 1v1l-1 2-2-2h1l1 1v-2l-1-1a1 1 0 001-1v-1-1l-1 1v1h-1v-1c0-1 0-2 2-2s1 1 1 2z" class="animable" style="transform-origin:87.5406px 94.115px"/><path id="elzuuhmqn64s" fill="#263238" d="M91 93v1h-1v-1zm0 4v1h-1v-1z" class="animable" style="transform-origin:90.395px 95.27px"/><path id="elmcrywi4k22" fill="#263238" d="M92 93a1 1 0 012 0l1 2v1l-2 2-1-2 1 1 1-1v-1l-1-1a1 1 0 00-1 0v1-5h3v1h-2z" class="animable" style="transform-origin:93.255px 94.155px"/><path id="el83srsugqt8x" fill="#263238" d="M99 92h-1l-1-1-1 1v2a1 1 0 012-1l1 2v1l-2 2-1-2v-4l1-2 2 2zm-3 3v1l1 1 1-1v-1l-1-1-1 1z" class="animable" style="transform-origin:97.33px 94.115px"/><path id="eltavf13e038" fill="#263238" d="M212 93h2v5h-2z" class="animable" style="transform-origin:212.97px 95.13px"/><path id="el32xejk7yhf3" fill="#263238" d="M215 92h2v6h-2z" class="animable" style="transform-origin:215.74px 94.61px"/><path id="elypcsnphwo3" fill="#263238" d="M218 91h2v7h-2z" class="animable" style="transform-origin:218.52px 94.24px"/><path id="elgihrwlya9tp" fill="#263238" d="M220 90h2v8h-2z" class="animable" style="transform-origin:221.29px 93.595px"/><path id="eluifg2qxwqf" fill="#263238" d="M248 98h-12v-8h12zm-12-1h11v-6h-11z" class="animable" style="transform-origin:241.83px 93.795px"/><path id="elgjkiqaq87s" fill="#263238" d="M237 91h7v5h-7z" class="animable" style="transform-origin:240.615px 93.775px"/><path id="el74qdzyk6o4r" fill="#263238" d="M248 93h2v2h-2z" class="animable" style="transform-origin:248.425px 93.77px"/><path id="elkkhir975vl" fill="#263238" d="M231 96c-3-2-4 0-5 0v-1s2-2 5 0v1z" class="animable" style="transform-origin:228.602px 95.1184px"/><path id="elh5hvdqlv2sn" fill="#263238" d="M232 94c-4-2-6 0-6 0h-1s3-3 7-1v1z" class="animable" style="transform-origin:228.627px 93.3873px"/><path id="el2tmp5m50opz" fill="#263238" d="M233 93v-1c-5-2-8 0-8 0h-1s4-3 9 0a1 1 0 010 1z" class="animable" style="transform-origin:228.591px 91.5106px"/><path id="elxaz22p9xvi" fill="#263238" d="M230 97a1 1 0 11-2-1 1 1 0 012 1z" class="animable" style="transform-origin:228.44px 96.71px"/><path id="elq558r08tb8" fill="#263238" d="M263 97v11h3v32h-3v7h3v32h-3v7h3v32h-3v217a21 21 0 01-21 20H86a21 21 0 01-20-20V166h-3v-32h3V97a21 21 0 0120-20h156a21 21 0 0121 20zm-54-13l-6 9a10 10 0 01-8 5h-61a10 10 0 01-8-5l-6-9H91a21 21 0 00-20 21v322a21 21 0 0020 21h146a21 21 0 0021-21V105a21 21 0 00-21-21z" class="animable" style="transform-origin:164.82px 265.96px"/></g><g id="freepik--Cables--inject-69" class="animable" style="transform-origin:221.955px 292.145px;animation:1s 1 forwards cubic-bezier(.36,-.01,.5,1.38) slideRight,1.5s Infinite linear floating;animation-delay:0s,1s"><path id="elrt5cpy2gq1d" fill="none" stroke="#263238" stroke-linecap="round" stroke-linejoin="round" d="M242 186h1a5 5 0 015 5v101a30 30 0 0030 29h0a30 30 0 0030-29v-37" class="animable" style="transform-origin:274.67px 253.55px"/><path id="elas9dywthvr8" fill="none" stroke="#263238" stroke-linecap="round" stroke-linejoin="round" stroke-width="3" d="M237 186h5" class="animable" style="transform-origin:239.61px 185.98px"/><path id="elhr4ufmz70q" fill="none" stroke="#263238" stroke-linecap="round" stroke-linejoin="round" d="M133 248a3 3 0 013 3v41a84 84 0 0084 84h0a80 80 0 0080-80v-41" class="animable" style="transform-origin:216.605px 311.64px"/><path id="elbd2ru3t838l" fill="none" stroke="#263238" stroke-linecap="round" stroke-linejoin="round" stroke-width="3" d="M128 248h5" class="animable" style="transform-origin:130.645px 247.51px"/><path id="elgvg3e49zjbr" fill="none" stroke="#263238" stroke-linecap="round" stroke-linejoin="round" d="M244 312a5 5 0 016 5v48a33 33 0 0033 33h0a33 33 0 0033-33V256" class="animable" style="transform-origin:280.02px 327.215px"/><path id="elv1cbuinl9w" fill="none" stroke="#263238" stroke-linecap="round" stroke-linejoin="round" stroke-width="3" d="M238 312h6" class="animable" style="transform-origin:241.245px 312.01px"/></g><g id="freepik--Apps--inject-69" class="animable" style="transform-origin:161.37px 249.055px;animation:1s 1 forwards cubic-bezier(.36,-.01,.5,1.38) slideLeft,1.5s Infinite linear floating;animation-delay:0s,1s"><rect id="elwyhwzkp3yrq" width="43.2" height="43.2" x="195" y="164" fill="#ffde34" stroke="#263238" stroke-linecap="round" stroke-linejoin="round" class="animable" rx="5.1" style="transform-origin:216.225px 185.835px"/><path id="elfg6lnrqush9" fill="#fff" stroke="#263238" stroke-linecap="round" stroke-linejoin="round" d="M230 185v-3l-3-1a11 11 0 00-2-4l2-2-2-3-3 2a11 11 0 00-4-1v-4h-3l-1 4a11 11 0 00-4 1l-2-2-3 3 2 2a11 11 0 00-1 4l-4 1v3h4a11 11 0 001 4l-2 3 3 2 2-2a11 11 0 004 2l1 3h3v-3a10 10 0 004-2l3 2 2-2-2-3a11 11 0 002-4zm-14 6a8 8 0 118-8 8 8 0 01-8 8z" class="animable" style="transform-origin:216.245px 183.19px"/><path id="elohhpxnf42fe" fill="#fff" stroke="#263238" stroke-linecap="round" stroke-linejoin="round" d="M202 201h27v2h-27z" class="animable" style="transform-origin:215.695px 201.595px"/><path id="elc5xuv76laug" fill="#263238" stroke="#263238" stroke-linecap="round" stroke-linejoin="round" d="M202 201h14v2h-14z" class="animable" style="transform-origin:208.955px 201.595px"/><rect id="elf23mioytnj8" width="43" height="43" x="140" y="164" fill="#fff" stroke="#263238" stroke-linecap="round" stroke-linejoin="round" class="animable" rx="5.4" style="transform-origin:161.325px 185.775px"/><circle id="elqwh5r2o0v9" cx="161.3" cy="185.8" r="14.8" fill="#263238" stroke="#263238" stroke-linecap="round" stroke-linejoin="round" class="animable" style="transform-origin:161.32px 185.78px" transform="rotate(-13)"/><path id="el983n5pqscw" fill="none" stroke="#fff" stroke-linecap="round" stroke-linejoin="round" d="M157 192l4-6v-11" class="animable" style="transform-origin:158.985px 183.38px"/><rect id="el5an81jhwtif" width="43" height="43" x="85" y="164" fill="#fff" stroke="#263238" stroke-linecap="round" stroke-linejoin="round" class="animable" rx="5.4" style="transform-origin:106.425px 185.775px"/><path id="el4c7u1kq28nc" fill="none" stroke="#fff" stroke-linecap="round" stroke-linejoin="round" d="M102 192l4-6v-11" class="animable" style="transform-origin:104.09px 183.38px"/><path id="el52bciprypay" fill="#263238" stroke="#263238" stroke-linecap="round" stroke-linejoin="round" d="M118 185l-19-11v22l19-11z" class="animable" style="transform-origin:108.705px 184.805px"/><rect id="elq2vq3bjw1sa" width="43.2" height="43.2" x="195" y="228" fill="#fff" stroke="#263238" stroke-linecap="round" stroke-linejoin="round" class="animable" rx="5.1" style="transform-origin:216.225px 249.055px"/><path id="elyqbbaxvf8fr" fill="#263238" stroke="#263238" stroke-linecap="round" stroke-linejoin="round" d="M216 236c-8 0-14 5-14 11 0 4 2 8 6 10l-2 6 7-5a17 17 0 003 0c7 0 14-5 14-11s-7-11-14-11z" class="animable" style="transform-origin:215.595px 249.45px"/><rect id="eljkm4b3vnt2" width="43.2" height="43.2" x="195" y="291" fill="#ffde34" stroke="#263238" stroke-linecap="round" stroke-linejoin="round" class="animable" rx="5.1" style="transform-origin:216.225px 312.275px"/><path id="elraatlu66d" fill="#fff" stroke="#263238" stroke-linecap="round" stroke-linejoin="round" d="M230 311v-3h-3a11 11 0 00-2-4l2-3-2-2-3 2a11 11 0 00-4-2v-3h-3l-1 3a11 11 0 00-4 2l-2-2-3 2 2 3a11 11 0 00-1 3l-4 1v3l4 1a10 10 0 001 4l-2 2 3 3 2-2a11 11 0 004 1l1 4h3v-4a11 11 0 004-1l3 2 2-3-2-2a11 11 0 002-4zm-14 7a8 8 0 118-8 8 8 0 01-8 8z" class="animable" style="transform-origin:216.245px 309.675px"/><path id="elhysc2in7i5s" fill="#fff" stroke="#263238" stroke-linecap="round" stroke-linejoin="round" d="M202 327h27v2h-27z" class="animable" style="transform-origin:215.695px 328.035px"/><path id="ell7ahyigi01e" fill="#263238" stroke="#263238" stroke-linecap="round" stroke-linejoin="round" d="M202 327h5v2h-5z" class="animable" style="transform-origin:204.44px 328.035px"/><rect id="el0211y5ddvqli" width="43" height="43" x="85" y="228" fill="#ffde34" stroke="#263238" stroke-linecap="round" stroke-linejoin="round" class="animable" rx="5.4" style="transform-origin:106.425px 249.005px"/><path id="elst12bqtp2w7" fill="#fff" stroke="#263238" stroke-linecap="round" stroke-linejoin="round" d="M121 248v-3l-4-1a11 11 0 00-1-3l2-3-2-3-3 2a11 11 0 00-4-1l-1-3h-3v3a11 11 0 00-4 1l-3-2-2 3 2 3a11 11 0 00-2 3l-3 1v3l3 1a11 11 0 002 3l-2 3 2 2 3-2a11 11 0 003 2l1 3h3l1-3a11 11 0 004-2l2 2 3-2-2-3a11 11 0 001-3zm-14 6a8 8 0 118-8 8 8 0 01-8 8z" class="animable" style="transform-origin:106.765px 246.435px"/><path id="el41wlfq9xpbf" fill="#fff" stroke="#263238" stroke-linecap="round" stroke-linejoin="round" d="M93 264h27v2H93z" class="animable" style="transform-origin:106.215px 264.815px"/><path id="elwbu723l9qr" fill="#263238" stroke="#263238" stroke-linecap="round" stroke-linejoin="round" d="M93 264h24v2H93z" class="animable" style="transform-origin:104.92px 264.815px"/><rect id="eln74ot1o8u8" width="43" height="43" x="85" y="291" fill="#fff" stroke="#263238" stroke-linecap="round" stroke-linejoin="round" class="animable" rx="5.4" style="transform-origin:106.425px 312.225px"/><path id="elnuo6q5tyolo" fill="none" stroke="#fff" stroke-linecap="round" stroke-linejoin="round" d="M102 318l4-6v-11" class="animable" style="transform-origin:104.09px 309.825px"/><path id="eltqelm5zqge" fill="#263238" stroke="#263238" stroke-linecap="round" stroke-linejoin="round" d="M92 303h29v19H92z" class="animable" style="transform-origin:106.425px 312.22px"/><path id="elflme5kce73t" fill="none" stroke="#fff" stroke-linecap="round" stroke-linejoin="round" d="M92 303l14 12 15-12" class="animable" style="transform-origin:106.325px 308.96px"/><path id="elk19ixlwa78q" fill="none" stroke="#fff" stroke-linecap="round" stroke-linejoin="round" d="M92 322l10-10" class="animable" style="transform-origin:97.125px 316.81px"/><path id="elir9iqdrqyhi" fill="none" stroke="#fff" stroke-linecap="round" stroke-linejoin="round" d="M121 322l-11-10" class="animable" style="transform-origin:115.485px 316.81px"/></g><g id="freepik--Plant--inject-69" class="animable" style="transform-origin:441.655px 361.204px;animation:1s 1 forwards cubic-bezier(.36,-.01,.5,1.38) zoomIn;animation-delay:0s"><path id="el64t26okq58o" fill="none" stroke="#263238" stroke-miterlimit="10" stroke-width="2" d="M426 308l12 110" class="animable" style="transform-origin:431.735px 362.705px"/><path id="elbiqcfa7amz" fill="none" stroke="#263238" stroke-miterlimit="10" stroke-width="2" d="M436 397l-6-6" class="animable" style="transform-origin:433.02px 393.845px"/><path id="el7wxijkainq" fill="#ffde34" stroke="#263238" stroke-miterlimit="10" d="M432 393a6 6 0 00-2-5c-1-1-8-4-9-1-1 2 6 8 11 6z" class="animable" style="transform-origin:426.439px 389.426px"/><path id="elpmtcohpb3m" fill="none" stroke="#263238" stroke-miterlimit="10" stroke-width=".5" d="M432 393l-7-4" class="animable" style="transform-origin:428.66px 390.66px"/><path id="eluquunpgaejn" fill="none" stroke="#263238" stroke-miterlimit="10" stroke-width="2" d="M437 409l-5-5" class="animable" style="transform-origin:434.325px 406.33px"/><path id="el66cl7l3gq8a" fill="#ffde34" stroke="#263238" stroke-miterlimit="10" d="M433 405a6 6 0 00-2-4c-1-1-8-4-9-2 0 3 7 8 11 6z" class="animable" style="transform-origin:427.743px 401.911px"/><path id="el28by0sqwnh" fill="none" stroke="#263238" stroke-miterlimit="10" stroke-width=".5" d="M433 405l-6-4" class="animable" style="transform-origin:429.96px 403.15px"/><path id="elg0he4n0py44" fill="none" stroke="#263238" stroke-miterlimit="10" stroke-width="2" d="M432 366l-5-5" class="animable" style="transform-origin:429.84px 363.375px"/><path id="el46cg8qjzlmn" fill="#ffde34" stroke="#263238" stroke-miterlimit="10" d="M429 362a6 6 0 00-2-4c-2-1-9-4-9-2-1 3 6 8 11 6z" class="animable" style="transform-origin:423.258px 358.959px"/><path id="el8ybptfsysin" fill="none" stroke="#263238" stroke-miterlimit="10" stroke-width=".5" d="M429 362l-7-4" class="animable" style="transform-origin:425.48px 360.195px"/><path id="elzip1h9g8wlj" fill="none" stroke="#263238" stroke-miterlimit="10" stroke-width="2" d="M434 379l-5-6" class="animable" style="transform-origin:431.145px 375.86px"/><path id="elzo4mhuqzntp" fill="#ffde34" stroke="#263238" stroke-miterlimit="10" d="M430 375a6 6 0 00-2-5c-1-1-8-4-9-1-1 2 7 8 11 6z" class="animable" style="transform-origin:424.564px 371.441px"/><path id="eliosxczai1xm" fill="none" stroke="#263238" stroke-miterlimit="10" stroke-width=".5" d="M430 375l-7-4" class="animable" style="transform-origin:426.78px 372.68px"/><path id="el203c9udwe9x" fill="none" stroke="#263238" stroke-miterlimit="10" stroke-width="2" d="M430 346l-5-6" class="animable" style="transform-origin:427.725px 343.095px"/><path id="elcka2vj0sqfc" fill="#ffde34" stroke="#263238" stroke-miterlimit="10" d="M427 342a6 6 0 00-2-4c-2-2-9-5-9-2-1 3 6 8 11 6z" class="animable" style="transform-origin:421.144px 338.682px"/><path id="elvtz9nhrksb" fill="none" stroke="#263238" stroke-miterlimit="10" stroke-width=".5" d="M427 342l-7-4" class="animable" style="transform-origin:423.36px 339.91px"/><path id="elsm5rwhrj8eb" fill="none" stroke="#263238" stroke-miterlimit="10" stroke-width="2" d="M428 326l-5-6" class="animable" style="transform-origin:425.595px 322.72px"/><path id="elhnrwzwed0gj" fill="#ffde34" stroke="#263238" stroke-miterlimit="10" d="M425 322a6 6 0 00-2-5c-2-1-9-4-9-1-1 2 6 8 11 6z" class="animable" style="transform-origin:419.019px 318.301px"/><path id="el6z3ur7yk7q" fill="none" stroke="#263238" stroke-miterlimit="10" stroke-width=".5" d="M425 322l-7-4" class="animable" style="transform-origin:421.24px 319.54px"/><path id="elmo2tvcbj9ud" fill="none" stroke="#263238" stroke-miterlimit="10" stroke-width="2" d="M435 389l4-6" class="animable" style="transform-origin:436.715px 385.98px"/><path id="elrjwe5iiabl" fill="#ffde34" stroke="#263238" stroke-miterlimit="10" d="M437 385a6 6 0 012-5c1-1 7-6 8-3 1 2-5 9-10 8z" class="animable" style="transform-origin:442.318px 380.316px"/><path id="elpj2i752p2b" fill="none" stroke="#263238" stroke-miterlimit="10" stroke-width=".5" d="M438 385l6-6" class="animable" style="transform-origin:440.495px 381.815px"/><path id="elzy6k90t65s" fill="none" stroke="#263238" stroke-miterlimit="10" stroke-width="2" d="M431 356l4-6" class="animable" style="transform-origin:433.285px 353.12px"/><path id="el7zqw3iphsyw" fill="#ffde34" stroke="#263238" stroke-miterlimit="10" d="M434 352a6 6 0 011-5c1-1 7-6 9-3 1 2-5 9-10 8z" class="animable" style="transform-origin:438.884px 347.436px"/><path id="elt9laol7kl7c" fill="none" stroke="#263238" stroke-miterlimit="10" stroke-width=".5" d="M434 352l6-6" class="animable" style="transform-origin:437.065px 348.965px"/><path id="elufdt6vy00u" fill="none" stroke="#263238" stroke-miterlimit="10" stroke-width="2" d="M430 342l4-6" class="animable" style="transform-origin:431.785px 338.68px"/><path id="elhuo0hwmvh8r" fill="#ffde34" stroke="#263238" stroke-miterlimit="10" d="M433 337a6 6 0 011-4c1-2 7-6 8-4 1 3-5 9-9 8z" class="animable" style="transform-origin:437.377px 332.996px"/><path id="elwj8fh76z9pm" fill="none" stroke="#263238" stroke-miterlimit="10" stroke-width=".5" d="M433 337l6-5" class="animable" style="transform-origin:435.56px 334.525px"/><path id="elxltwjc0ncqi" fill="none" stroke="#263238" stroke-miterlimit="10" stroke-width="2" d="M428 321l4-7" class="animable" style="transform-origin:429.575px 317.51px"/><path id="eljm6rr9lzud" fill="#ffde34" stroke="#263238" stroke-miterlimit="10" d="M430 316a6 6 0 011-5c2-1 8-5 9-3s-5 9-10 8z" class="animable" style="transform-origin:435.167px 311.826px"/><path id="elbjblxjy5rym" fill="none" stroke="#263238" stroke-miterlimit="10" stroke-width=".5" d="M430 316l6-5" class="animable" style="transform-origin:433.35px 313.355px"/><path id="el7cc5dhxyp1l" fill="#ffde34" stroke="#263238" stroke-miterlimit="10" d="M426 307a6 6 0 011-5c1-1 7-5 9-3 1 2-5 9-10 8z" class="animable" style="transform-origin:430.734px 302.796px"/><path id="elpdhmfriceza" fill="none" stroke="#263238" stroke-miterlimit="10" stroke-width=".5" d="M426 307l6-6" class="animable" style="transform-origin:428.915px 304.325px"/><path id="eltv9wtqrm6m" fill="#ffde34" stroke="#263238" stroke-miterlimit="10" d="M426 307a6 6 0 01-4-1c-2-1-5-8-3-9 3-1 9 6 7 10z" class="animable" style="transform-origin:422.37px 302.211px"/><path id="elxumzty5q6vd" fill="none" stroke="#263238" stroke-miterlimit="10" stroke-width=".5" d="M426 307l-5-6" class="animable" style="transform-origin:423.715px 304.155px"/><path id="elzzikgooft9i" fill="none" stroke="#263238" stroke-miterlimit="10" stroke-width="2" d="M456 323l-11 110" class="animable" style="transform-origin:450.53px 377.825px"/><path id="elf0t0e28gzlm" fill="none" stroke="#263238" stroke-miterlimit="10" stroke-width="2" d="M447 412l-4-7" class="animable" style="transform-origin:445.375px 408.56px"/><path id="elnfflb6eqg8p" fill="#ffde34" stroke="#263238" stroke-miterlimit="10" d="M445 407a6 6 0 00-2-4c-1-2-7-6-8-4-1 3 5 9 10 8z" class="animable" style="transform-origin:439.776px 402.88px"/><path id="elu9bliitvu8n" fill="none" stroke="#263238" stroke-miterlimit="10" stroke-width=".5" d="M445 407l-6-5" class="animable" style="transform-origin:441.76px 404.555px"/><path id="elibfcaj4b5er" fill="none" stroke="#263238" stroke-miterlimit="10" stroke-width="2" d="M451 381l-4-6" class="animable" style="transform-origin:448.535px 378.09px"/><path id="elaqetuka4tzj" fill="#ffde34" stroke="#263238" stroke-miterlimit="10" d="M448 377a6 6 0 00-1-5c-1-1-8-6-9-3-1 2 5 9 10 8z" class="animable" style="transform-origin:442.939px 372.41px"/><path id="ell6ejao68f3" fill="none" stroke="#263238" stroke-miterlimit="10" stroke-width=".5" d="M448 377l-6-6" class="animable" style="transform-origin:444.93px 374.085px"/><path id="el7z9zhxys35s" fill="none" stroke="#263238" stroke-miterlimit="10" stroke-width="2" d="M449 394l-4-7" class="animable" style="transform-origin:447.24px 390.58px"/><path id="elj1ry1u03v7" fill="#ffde34" stroke="#263238" stroke-miterlimit="10" d="M446 389a6 6 0 00-1-4c-1-2-7-6-8-4-1 3 5 9 9 8z" class="animable" style="transform-origin:441.643px 384.894px"/><path id="elok3hx8wl9h" fill="none" stroke="#263238" stroke-miterlimit="10" stroke-width=".5" d="M447 389l-6-5" class="animable" style="transform-origin:443.63px 386.57px"/><path id="elehs7rmxis5a" fill="none" stroke="#263238" stroke-miterlimit="10" stroke-width="2" d="M453 361l-4-6" class="animable" style="transform-origin:450.64px 357.81px"/><path id="el2pxpxehlib4" fill="#ffde34" stroke="#263238" stroke-miterlimit="10" d="M450 357a6 6 0 00-1-5c-1-2-8-6-9-4-1 3 5 9 10 9z" class="animable" style="transform-origin:445.044px 352.122px"/><path id="el7ji1pnmvvnx" fill="none" stroke="#263238" stroke-miterlimit="10" stroke-width=".5" d="M450 357l-6-6" class="animable" style="transform-origin:447.03px 353.795px"/><path id="eltleix6d5o3h" fill="none" stroke="#263238" stroke-miterlimit="10" stroke-width="2" d="M455 341l-4-7" class="animable" style="transform-origin:452.755px 337.44px"/><path id="el8bo1lsxhxj9" fill="#ffde34" stroke="#263238" stroke-miterlimit="10" d="M452 336a6 6 0 00-1-5c-1-1-7-5-9-3-1 2 5 9 10 8z" class="animable" style="transform-origin:447.174px 331.751px"/><path id="el2rxx31fe36o" fill="none" stroke="#263238" stroke-miterlimit="10" stroke-width=".5" d="M452 336l-6-5" class="animable" style="transform-origin:449.14px 333.425px"/><path id="el6futbbmrz8v" fill="none" stroke="#263238" stroke-miterlimit="10" stroke-width="2" d="M448 404l5-5" class="animable" style="transform-origin:450.615px 401.625px"/><path id="elrtcrwljmltp" fill="#ffde34" stroke="#263238" stroke-miterlimit="10" d="M452 401a6 6 0 012-5c1-1 8-4 9-2 0 3-7 8-11 7z" class="animable" style="transform-origin:457.191px 397.209px"/><path id="elll4dtv867w" fill="none" stroke="#263238" stroke-miterlimit="10" stroke-width=".5" d="M452 401l7-5" class="animable" style="transform-origin:455.165px 398.335px"/><path id="elw1l1krqq7th" fill="none" stroke="#263238" stroke-miterlimit="10" stroke-width="2" d="M451 372l6-6" class="animable" style="transform-origin:454.025px 368.765px"/><path id="eldkr18ps23ml" fill="#ffde34" stroke="#263238" stroke-miterlimit="10" d="M455 368a6 6 0 012-5c1-1 8-4 9-1 1 2-6 8-11 6z" class="animable" style="transform-origin:460.564px 364.349px"/><path id="elbqnk62k26go" fill="none" stroke="#263238" stroke-miterlimit="10" stroke-width=".5" d="M455 368l7-5" class="animable" style="transform-origin:458.575px 365.475px"/><path id="elci265du6xjc" fill="none" stroke="#263238" stroke-miterlimit="10" stroke-width="2" d="M453 357l5-5" class="animable" style="transform-origin:455.525px 354.325px"/><path id="elmnoon6t5oe" fill="#ffde34" stroke="#263238" stroke-miterlimit="10" d="M457 353a6 6 0 012-4c1-1 8-4 9-2 0 3-7 8-11 6z" class="animable" style="transform-origin:462.097px 349.909px"/><path id="el7o3r5gecsyk" fill="none" stroke="#263238" stroke-miterlimit="10" stroke-width=".5" d="M457 353l7-4" class="animable" style="transform-origin:460.075px 351.035px"/><path id="el5bcc8aqomot" fill="none" stroke="#263238" stroke-miterlimit="10" stroke-width="2" d="M455 336l5-6" class="animable" style="transform-origin:457.715px 333.155px"/><path id="el9pir673a3d" fill="#ffde34" stroke="#263238" stroke-miterlimit="10" d="M459 332a6 6 0 012-4c1-2 8-5 9-2s-7 8-11 6z" class="animable" style="transform-origin:464.296px 328.747px"/><path id="elwikc5jvpi2" fill="none" stroke="#263238" stroke-miterlimit="10" stroke-width=".5" d="M459 332l7-4" class="animable" style="transform-origin:462.275px 329.865px"/><path id="el4ettwucy45a" fill="#ffde34" stroke="#263238" stroke-miterlimit="10" d="M456 322a6 6 0 012-4c2-1 9-4 9-2 1 3-6 8-11 6z" class="animable" style="transform-origin:461.816px 318.991px"/><path id="elcrjyvd1xspi" fill="none" stroke="#263238" stroke-miterlimit="10" stroke-width=".5" d="M456 322l7-4" class="animable" style="transform-origin:459.795px 320.115px"/><path id="eljnqwhu6ptj" fill="#ffde34" stroke="#263238" stroke-miterlimit="10" d="M457 323a6 6 0 01-5-3c-1-1-3-9 0-9 2 0 7 7 5 12z" class="animable" style="transform-origin:453.85px 316.791px"/><path id="elp86368u6tza" fill="none" stroke="#263238" stroke-miterlimit="10" stroke-width=".5" d="M457 323l-4-8" class="animable" style="transform-origin:454.735px 318.885px"/><path id="el0x0ux4y5et7" fill="none" stroke="#263238" stroke-miterlimit="10" stroke-width="2" d="M443 278v139" class="animable" style="transform-origin:443.17px 347.64px"/><path id="el55xsg679tky" fill="none" stroke="#263238" stroke-miterlimit="10" stroke-width="2" d="M443 396l-4-6" class="animable" style="transform-origin:440.98px 393.19px"/><path id="elf1a4w8v6nop" fill="#ffde34" stroke="#263238" stroke-miterlimit="10" d="M440 392a6 6 0 00-2-5c-1-1-7-5-8-2-1 2 5 8 10 7z" class="animable" style="transform-origin:434.847px 388.106px"/><path id="eljapo8k3kcuh" fill="none" stroke="#263238" stroke-miterlimit="10" stroke-width=".5" d="M440 392l-6-5" class="animable" style="transform-origin:436.975px 389.575px"/><path id="elb5yswfvlp9n" fill="none" stroke="#263238" stroke-miterlimit="10" stroke-width="2" d="M443 370l-4-6" class="animable" style="transform-origin:440.98px 367.095px"/><path id="el8su9bulk6cs" fill="#ffde34" stroke="#263238" stroke-miterlimit="10" d="M440 366a6 6 0 00-2-5c-1-1-7-5-8-2-1 2 5 8 10 7z" class="animable" style="transform-origin:434.847px 362.007px"/><path id="el6llxlegzfvo" fill="none" stroke="#263238" stroke-miterlimit="10" stroke-width=".5" d="M440 366l-6-5" class="animable" style="transform-origin:436.975px 363.48px"/><path id="elkeilyr5ck" fill="none" stroke="#263238" stroke-miterlimit="10" stroke-width="2" d="M443 340l-4-6" class="animable" style="transform-origin:440.98px 336.46px"/><path id="elyzoz6ou12s9" fill="#ffde34" stroke="#263238" stroke-miterlimit="10" d="M440 335a6 6 0 00-2-4c-1-2-7-5-8-3-1 3 5 9 10 7z" class="animable" style="transform-origin:434.847px 331.372px"/><path id="elutazfxj5r6l" fill="none" stroke="#263238" stroke-miterlimit="10" stroke-width=".5" d="M440 335l-6-5" class="animable" style="transform-origin:436.975px 332.845px"/><path id="elxtmm7g3p3ue" fill="none" stroke="#263238" stroke-miterlimit="10" stroke-width="2" d="M443 319l-4-6" class="animable" style="transform-origin:440.98px 316.07px"/><path id="el932frn17r2g" fill="#ffde34" stroke="#263238" stroke-miterlimit="10" d="M440 315a6 6 0 00-2-5c-1-1-7-5-8-2-1 2 5 8 10 7z" class="animable" style="transform-origin:434.847px 310.98px"/><path id="elujwwgh8bfed" fill="none" stroke="#263238" stroke-miterlimit="10" stroke-width=".5" d="M440 315l-6-5" class="animable" style="transform-origin:436.975px 312.455px"/><path id="el3lp0og08l2r" fill="none" stroke="#263238" stroke-miterlimit="10" stroke-width="2" d="M443 299l-4-6" class="animable" style="transform-origin:440.98px 295.59px"/><path id="elg7fj5pvp2wd" fill="#ffde34" stroke="#263238" stroke-miterlimit="10" d="M440 294a6 6 0 00-2-4c-1-2-7-5-8-3-1 3 5 9 10 7z" class="animable" style="transform-origin:434.847px 290.497px"/><path id="elg7n9yb3fzi5" fill="none" stroke="#263238" stroke-miterlimit="10" stroke-width=".5" d="M440 294l-6-4" class="animable" style="transform-origin:436.975px 291.97px"/><path id="elp3cy7eik1t" fill="none" stroke="#263238" stroke-miterlimit="10" stroke-width="2" d="M443 404l5-6" class="animable" style="transform-origin:445.48px 401.155px"/><path id="el987d3cy9z7k" fill="#ffde34" stroke="#263238" stroke-miterlimit="10" d="M446 400a6 6 0 012-5c1-1 8-5 9-2 1 2-6 8-11 7z" class="animable" style="transform-origin:451.613px 396.102px"/><path id="el5j9fmsm25m" fill="none" stroke="#263238" stroke-miterlimit="10" stroke-width=".5" d="M446 400l7-5" class="animable" style="transform-origin:449.67px 397.41px"/><path id="elsqmyw5fxplb" fill="none" stroke="#263238" stroke-miterlimit="10" stroke-width="2" d="M443 363l5-6" class="animable" style="transform-origin:445.48px 359.66px"/><path id="elcvy1i0m0jn5" fill="#ffde34" stroke="#263238" stroke-miterlimit="10" d="M446 358a6 6 0 012-4c1-1 8-5 9-3 1 3-6 9-11 7z" class="animable" style="transform-origin:451.613px 354.567px"/><path id="elvgx6haazx3i" fill="none" stroke="#263238" stroke-miterlimit="10" stroke-width=".5" d="M446 359l7-6" class="animable" style="transform-origin:449.67px 355.91px"/><path id="el986oipl48km" fill="none" stroke="#263238" stroke-miterlimit="10" stroke-width="2" d="M443 342l5-6" class="animable" style="transform-origin:445.48px 339.175px"/><path id="elzo2uupxrk2" fill="#ffde34" stroke="#263238" stroke-miterlimit="10" d="M446 338a6 6 0 012-5c1-1 8-5 9-2 1 2-6 8-11 7z" class="animable" style="transform-origin:451.613px 334.105px"/><path id="eljq6341dw14" fill="none" stroke="#263238" stroke-miterlimit="10" stroke-width=".5" d="M446 338l7-5" class="animable" style="transform-origin:449.67px 335.43px"/><path id="el7e8c7njtvck" fill="none" stroke="#263238" stroke-miterlimit="10" stroke-width="2" d="M443 315l5-6" class="animable" style="transform-origin:445.48px 312.105px"/><path id="elm04dp17th1r" fill="#ffde34" stroke="#263238" stroke-miterlimit="10" d="M446 311a6 6 0 012-5c1-1 8-5 9-2 1 2-6 8-11 7z" class="animable" style="transform-origin:451.614px 307.012px"/><path id="ellnrx25gngo" fill="none" stroke="#263238" stroke-miterlimit="10" stroke-width=".5" d="M446 311l7-5" class="animable" style="transform-origin:449.67px 308.355px"/><path id="el0rz2hru4og1" fill="none" stroke="#263238" stroke-miterlimit="10" stroke-width="2" d="M443 294l5-6" class="animable" style="transform-origin:445.48px 290.82px"/><path id="elbbtlvy36nj" fill="#ffde34" stroke="#263238" stroke-miterlimit="10" d="M446 290a6 6 0 012-5c1-1 8-5 9-3 1 3-6 9-11 8z" class="animable" style="transform-origin:451.622px 285.717px"/><path id="elyoddb2t5edq" fill="none" stroke="#263238" stroke-miterlimit="10" stroke-width=".5" d="M446 290l7-5" class="animable" style="transform-origin:449.67px 287.075px"/><path id="el83uhxc7pzo" fill="#ffde34" stroke="#263238" stroke-miterlimit="10" d="M443 280a6 6 0 011-4c2-2 8-5 9-3 1 3-5 9-10 7z" class="animable" style="transform-origin:448.137px 276.292px"/><path id="el8owyl5asxbx" fill="none" stroke="#263238" stroke-miterlimit="10" stroke-width=".5" d="M443 280l7-5" class="animable" style="transform-origin:446.19px 277.635px"/><path id="eljs5t3cx4nli" fill="#ffde34" stroke="#263238" stroke-miterlimit="10" d="M443 280a6 6 0 01-4-2c-1-1-4-8-2-9 3 0 8 7 6 11z" class="animable" style="transform-origin:439.912px 274.899px"/><path id="elqwnjbijcwe" fill="none" stroke="#263238" stroke-miterlimit="10" stroke-width=".5" d="M443 281l-4-8" class="animable" style="transform-origin:441.035px 276.925px"/><path id="elut9jmjpbt4" fill="#263238" stroke="#263238" stroke-miterlimit="10" d="M449 453h-15l-2-37h19l-2 37z" class="animable" style="transform-origin:441.53px 434.505px"/></g><g id="freepik--Character--inject-69" class="animable" style="transform-origin:354.113px 302.941px;animation:1s 1 forwards cubic-bezier(.36,-.01,.5,1.38) slideRight,1.5s Infinite linear floating;animation-delay:0s,1s"><path id="elqjekwu5254" fill="#263238" stroke="#263238" stroke-linecap="round" stroke-linejoin="round" d="M413 183c-6-5-5-13-5-13s-24 23-26 30 18 34 20 38a4 4 0 002 1 17 17 0 00-1 7c0 8 9 5 12 3a7 7 0 003-7s-4 2-4 0 4-6 4-6h0a15 15 0 002-2c5-6-3-12-4-16s1-7 7-11-4-19-10-24z" class="animable" style="transform-origin:403.406px 210.634px"/><path id="elmdcklgkm8r" fill="#fff" stroke="#263238" stroke-linecap="round" stroke-linejoin="round" d="M323 233a56 56 0 01-1 8 12 12 0 004 9l8 3 1-6-1-2 1-9a28 28 0 00-2-4l-5-5c-1-1-4 1-4 1a15 15 0 00-2 0z" class="animable" style="transform-origin:328.42px 240.045px"/><path id="elstkj16mq47" fill="#fff" stroke="#263238" stroke-linecap="round" stroke-linejoin="round" d="M321 227l-3 1c-1 1 1 5 1 6s2 0 2-2v-5z" class="animable" style="transform-origin:319.833px 230.286px"/><path id="elosqxbzhth5l" fill="#fff" stroke="#263238" stroke-linecap="round" stroke-linejoin="round" d="M323 226l-3 1c-1 1 1 6 1 7s2 0 2-2v-6z" class="animable" style="transform-origin:321.872px 229.984px"/><path id="elcd56ih8vku9" fill="#fff" stroke="#263238" stroke-linecap="round" stroke-linejoin="round" d="M325 225l-3 1c-1 1 1 7 1 8s3 0 3-2l-1-7z" class="animable" style="transform-origin:324.086px 229.614px"/><path id="elzlpgj11mn4" fill="#fff" stroke="#263238" stroke-linecap="round" stroke-linejoin="round" d="M328 225l-3 1v8c0 1 3 0 3-2v-7z" class="animable" style="transform-origin:326.37px 229.63px"/><path id="elflqy2rutqf" fill="#fff" stroke="#263238" stroke-linecap="round" stroke-linejoin="round" d="M334 243l1-8c0-3-3-6-4-7s0-4-2-4-1 1-1 1-1 3 0 4a25 25 0 013 4l-4 10c0 3 4 4 4 4" class="animable" style="transform-origin:331.003px 235.515px"/><path id="elocybbe62js" fill="#ffde34" stroke="#263238" stroke-linecap="round" stroke-linejoin="round" d="M335 247l-1 9 25 8v-14l-24-3z" class="animable" style="transform-origin:346.305px 255.61px"/><path id="eldallb091ecw" fill="#ffde34" stroke="#263238" stroke-linecap="round" stroke-linejoin="round" d="M377 203s-14 4-15 9l-4 18s-4 9-4 14 4 14 2 20l-8 32-2 10 5 1 7 1 5-35c2-16-3-28 2-39s18-22 17-26-5-5-5-5z" class="animable" style="transform-origin:364.2px 255.535px"/><path id="elmue9l0pb0u" fill="#263238" stroke="#263238" stroke-linecap="round" stroke-linejoin="round" d="M351 295s-2 23 2 40a233 233 0 008 29s5 28 8 38a71 71 0 013 27c0 8-6 18-8 20s-8 6-2 8 15-2 19-3c8 0 9-5 9-10s-5-21-4-29 2-36 1-43l-2-14-1-60-32-4z" class="animable" style="transform-origin:370.021px 375.487px"/><path id="elmmedi3cf3cd" fill="#fff" stroke="#263238" stroke-linecap="round" stroke-linejoin="round" d="M386 420c-7 3-11 2-14 1a58 58 0 010 8c0 8-6 18-8 20s-8 6-2 8 15-2 19-3c8 0 8-5 8-10l-3-24z" class="animable" style="transform-origin:374.411px 438.422px"/><path id="elr8eug5vo01" fill="#ffde34" stroke="#263238" stroke-linecap="round" stroke-linejoin="round" d="M389 443a1 1 0 010 0v-1a1 1 0 000 0v-1h0v-1h0v-1-1h0l-2 1c-5 6-12 12-19 12-4 0-4-1-4-2-3 2-8 6-2 8 7 1 15-3 19-3 8 0 9-5 9-10l-1-1z" class="animable" style="transform-origin:374.493px 447.43px"/><path id="elmezxerwurz" fill="#fff" stroke="#263238" stroke-linecap="round" stroke-linejoin="round" d="M383 450c-6 5-12 5-18 5-4 0-5-1-5-2-1 1-1 3 2 4 7 1 15-3 19-3 7 0 8-5 8-9l-6 5z" class="animable" style="transform-origin:374.411px 450.96px"/><path id="el4n26p21ywyu" fill="#263238" stroke="#263238" stroke-linecap="round" stroke-linejoin="round" d="M371 330s4 41 6 51l8 54c0 5-3 12-5 16s-7 3-7 6 10 3 12 3 15-3 15-4v-9a28 28 0 000-5l-4-9 5-36v-21c0-5-3-14-3-14l6-51-1-16-18 1h-17v12" class="animable" style="transform-origin:385.975px 377.77px"/><path id="elvsxpuy1rqy" fill="#fff" stroke="#263238" stroke-linecap="round" stroke-linejoin="round" d="M400 456v-9a28 28 0 000-5l-4-9 1-11a16 16 0 01-13-1l1 14c0 5-3 12-5 15s-7 4-7 7 10 3 12 3 15-3 15-4z" class="animable" style="transform-origin:386.541px 440.845px"/><path id="elnf5ojnspxd" fill="#ffde34" stroke="#263238" stroke-linecap="round" stroke-linejoin="round" d="M400 456v-9a28 28 0 000-5l-2-6h-1c-1 4-10 14-13 16s-5 0-5 0h0c-3 2-6 3-6 5-1 5 12 4 13 4s14-4 14-5z" class="animable" style="transform-origin:386.536px 448.46px"/><path id="el1gpxbo1sfj6" fill="#fff" stroke="#263238" stroke-linecap="round" stroke-linejoin="round" d="M400 456a56 56 0 000-7 40 40 0 01-22 9c-3 0-5-2-5-2a3 3 0 000 1c-1 5 12 4 13 4s14-4 14-5z" class="animable" style="transform-origin:386.465px 455.245px"/><path id="elktrgzsxwjub" fill="#fff" stroke="#263238" stroke-linecap="round" stroke-linejoin="round" d="M375 204l-15 31c-2 6-2 18-2 22l-7 38s6 7 23 6 27-5 27-5l-4-38c0-7 9-35 8-43s-13-7-16-8l-14-3z" class="animable" style="transform-origin:377.898px 252.687px"/><path id="el1a8a3dqq7as" fill="#fff" stroke="#263238" stroke-linecap="round" stroke-linejoin="round" d="M361 159s-4 12-3 14a22 22 0 013 5s-4 7-3 8a11 11 0 003 2s3 11 5 12 14-3 14-3 7-6 4-18-14-19-16-21-7 1-7 1z" class="animable" style="transform-origin:371.266px 178.976px"/><path id="el25tfv29k97q" fill="none" stroke="#263238" stroke-linecap="round" stroke-linejoin="round" d="M367 178v2h5" class="animable" style="transform-origin:369.345px 179.008px"/><path id="el16k4f566356" fill="none" stroke="#263238" stroke-linecap="round" stroke-linejoin="round" d="M366 176a6 6 0 015 0" class="animable" style="transform-origin:368.65px 176.035px"/><path id="elhrwh9adex3n" fill="none" stroke="#263238" stroke-linecap="round" stroke-linejoin="round" d="M363 176s1-2 6-2 6 1 7 2a1 1 0 010 1l-2 6c-2 1-5 3-8 2s-3-6-3-7v-2z" class="animable" style="transform-origin:369.446px 179.544px"/><path id="elu3m8vooie9t" fill="none" stroke="#263238" stroke-linecap="round" stroke-linejoin="round" d="M376 176h2" class="animable" style="transform-origin:376.705px 176.09px"/><path id="elurqnwlome3d" fill="none" stroke="#263238" stroke-linecap="round" stroke-linejoin="round" d="M363 176s-2-1-3 1" class="animable" style="transform-origin:361.72px 176.174px"/><path id="elbfs0kwzcres" fill="none" stroke="#263238" stroke-linecap="round" stroke-linejoin="round" d="M360 176a14 14 0 00-4 0l-2 1a12 12 0 010 3l2 4a8 8 0 002 1" class="animable" style="transform-origin:356.643px 180.255px"/><path id="el9gtfxuabbek" fill="#ffde34" stroke="#263238" stroke-linecap="round" stroke-linejoin="round" d="M385 206s-8 22-10 34-2 75-2 75a37 37 0 0019 3c11 0 22-7 22-7s-3-19-7-32l-6-19s9-42 8-47-24-7-24-7z" class="animable" style="transform-origin:393.374px 262.417px"/><path id="elqtn4fwhneqo" fill="#263238" stroke="#263238" stroke-linecap="round" stroke-linejoin="round" d="M369 147s-12 4-12 6-1 5 7 11 15 11 15 18-6 26-8 32 0 15 4 16 4 1 3-2 2-15 11-18 17-10 19-22 1-29-11-38-28-3-28-3z" class="animable" style="transform-origin:382.75px 187.799px"/><path id="elh8biufh6gda" fill="#ffde34" stroke="#263238" stroke-linecap="round" stroke-linejoin="round" d="M392 230l-3 29-2 1v1l-2 1-1 2-44-4-12-2-10-1s1 3 3 3l10 4 9 2 9 1 30 7c7 1 14 5 16 4a11 11 0 007-7l5-26 5-27c0-5-7-8-14-5" class="animable" style="transform-origin:365.255px 244.793px"/><path id="el1omkzdyul8f" fill="#fff" stroke="#263238" stroke-linecap="round" stroke-linejoin="round" d="M385 276l-3-13-42-3-12-2-10-1s1 3 3 3l10 4 9 2 9 1a590 590 0 0036 9z" class="animable" style="transform-origin:351.79px 266.515px"/><path id="elbfvdivtkoz" fill="none" stroke="#263238" stroke-linecap="round" stroke-linejoin="round" d="M390 272l1 2" class="animable" style="transform-origin:390.255px 272.78px"/><path id="elkwbvim7u1gn" fill="none" stroke="#263238" stroke-linecap="round" stroke-linejoin="round" d="M384 264l5 6" class="animable" style="transform-origin:386.31px 266.955px"/><path id="elnu7bjm1ymzt" fill="none" stroke="#263238" stroke-linecap="round" stroke-linejoin="round" d="M387 261l6 5" class="animable" style="transform-origin:390.115px 263.65px"/><path id="elover5n4r569" fill="none" stroke="#263238" stroke-linecap="round" stroke-linejoin="round" d="M320 258a3 3 0 003 2l6 2" class="animable" style="transform-origin:324.85px 260.03px"/><path id="elre8z77isku" fill="none" stroke="#263238" stroke-linecap="round" stroke-linejoin="round" d="M326 258a8 8 0 003 2 56 56 0 015 2" class="animable" style="transform-origin:329.935px 260.105px"/><path id="elzt7psh9i3z8" fill="#fff" stroke="#263238" stroke-linecap="round" stroke-linejoin="round" d="M348 261l-7-2a16 16 0 01-5 0c-2-1-3 2-1 3a8 8 0 003 0l3 1" class="animable" style="transform-origin:340.935px 260.608px"/><path id="el86u0ddk4fwg" fill="#fff" stroke="#263238" stroke-linecap="round" stroke-linejoin="round" d="M296 254l62 7v-2l-62-7v2z" class="animable" style="transform-origin:327.25px 256.635px"/><path id="elohbkc2ta1pg" fill="#fff" stroke="#263238" stroke-linecap="round" stroke-linejoin="round" d="M296 252l-12-32 35 3 11 33-34-4z" class="animable" style="transform-origin:306.99px 238.12px"/><path id="elipkje25jnq" fill="#263238" stroke="#263238" stroke-linecap="round" stroke-linejoin="round" d="M330 256v2l28 3v-2l-28-3h0z" class="animable" style="transform-origin:344.295px 258.44px"/></g><defs><filter id="active" height="200%"><feMorphology in="SourceAlpha" operator="dilate" radius="2" result="DILATED"/><feFlood flood-color="#32DFEC" flood-opacity="1" result="PINK"/><feComposite in="PINK" in2="DILATED" operator="in" result="OUTLINE"/><feMerge><feMergeNode in="OUTLINE"/><feMergeNode in="SourceGraphic"/></feMerge></filter><filter id="hover" height="200%"><feMorphology in="SourceAlpha" operator="dilate" radius="2" result="DILATED"/><feFlood flood-color="red" flood-opacity=".5" result="PINK"/><feComposite in="PINK" in2="DILATED" operator="in" result="OUTLINE"/><feMerge><feMergeNode in="OUTLINE"/><feMergeNode in="SourceGraphic"/></feMerge><feColorMatrix values="0 0 0 0 0 0 1 0 0 0 0 0 0 0 0 0 0 0 1 0"/></filter></defs></svg>