<svg xmlns="http://www.w3.org/2000/svg" id="freepik_stories-programmer" class="animated" version="1.1" viewBox="0 0 500 500"><defs/><style>@keyframes wind{0%{transform:rotate(0deg)}25%{transform:rotate(1deg)}75%{transform:rotate(-1deg)}}@keyframes slideUp{0%{opacity:0;transform:translateY(30px)}to{opacity:1;transform:inherit}}@keyframes slideRight{0%{opacity:0;transform:translateX(30px)}to{opacity:1;transform:translateX(0)}}@keyframes floating{0%,to{opacity:1;transform:translateY(0)}50%{transform:translateY(-10px)}}@keyframes slideDown{0%{opacity:0;transform:translateY(-30px)}to{opacity:1;transform:translateY(0)}}svg#freepik_stories-programmer:not(.animated) .animable{opacity:0}</style><g id="freepik--background-simple--inject-14" class="animable" style="transform-origin:252.816px 236.869px;animation:1.5s Infinite linear wind;animation-delay:0s"><path d="M187 322c-48-15-157-49-136-146 24-112 156-36 237-74 58-26 178-55 169 66-9 118-14 203-83 223s-115-47-187-69z" style="transform-origin:252.816px 236.869px" id="ell2bdxsyfx8l" fill="#ffde30" class="animable"/><path d="M187 322c-48-15-157-49-136-146 24-112 156-36 237-74 58-26 178-55 169 66-9 118-14 203-83 223s-115-47-187-69z" style="transform-origin:252.816px 236.869px" id="el5voqi0p0dab" fill="#fff" class="animable" opacity=".7"/></g><g id="freepik--Floor--inject-14" class="animable" style="transform-origin:250px 408.51px"><path style="transform-origin:250px 408.51px" id="ellxguf2u4d" fill="none" stroke="#263238" stroke-linecap="round" stroke-linejoin="round" d="M43 409h414" class="animable"/></g><g id="freepik--Plant--inject-14" class="animable" style="transform-origin:107.788px 323.945px;animation:1s 1 forwards cubic-bezier(.36,-.01,.5,1.38) slideUp;animation-delay:0s"><path d="M114 295c6 5 4 34 23 21s-13-20-12-27c3-10 45 2 38-17s-32 9-39 2c-6-6 24-30 10-34s-11 30-20 30c-7 0-6-33-19-21s16 23 12 30c-3 6-25-8-24 5s25 5 31 11z" style="transform-origin:123.238px 279.472px" id="elelnr507n7dw" fill="#ffde30" class="animable"/><path d="M118 279s-14 17-12 62" style="transform-origin:111.881px 310.26px" id="elxp5lbh8tb2n" fill="none" stroke="#263238" stroke-linecap="round" stroke-linejoin="round" class="animable"/><path d="M145 303c-3-5-23-8-11-19s11 12 16 12c7 0 6-30 18-22s-12 20-8 25c3 5 24-11 25-1s-23 3-24 9c-1 5 21 9 11 16s-13-14-18-13c-4 1 1 18-7 16s0-18-2-23z" style="transform-origin:157.351px 299.083px" id="eljou7xmrtvr" fill="#ffde30" class="animable"/><path d="M145 303c-3-5-23-8-11-19s11 12 16 12c7 0 6-30 18-22s-12 20-8 25c3 5 24-11 25-1s-23 3-24 9c-1 5 21 9 11 16s-13-14-18-13c-4 1 1 18-7 16s0-18-2-23z" style="transform-origin:157.351px 299.083px" id="el7r1ecfdby5l" class="animable" opacity=".3"/><path d="M155 303s-39-4-43 38" style="transform-origin:133.645px 322.027px" id="elz2241eakuv" fill="none" stroke="#263238" stroke-linecap="round" stroke-linejoin="round" class="animable"/><path d="M81 299c-6 5-4 34-23 21s13-20 11-27c-2-10-44 2-37-17s32 9 39 2c6-6-24-30-10-34s11 30 20 30c7 0 6-33 19-21s-16 23-12 30c3 6 25-8 24 5s-25 5-31 11z" style="transform-origin:71.6359px 283.521px" id="ellkdu4puvby" fill="#ffde30" class="animable"/><path d="M81 299c-6 5-4 34-23 21s13-20 11-27c-2-10-44 2-37-17s32 9 39 2c6-6-24-30-10-34s11 30 20 30c7 0 6-33 19-21s-16 23-12 30c3 6 25-8 24 5s-25 5-31 11z" style="transform-origin:71.6359px 283.521px" id="ella6hqo2fz6" fill="#fff" class="animable" opacity=".3"/><path d="M77 284s17 23 21 63" style="transform-origin:87.415px 315.065px" id="elyqtgy9fedr" fill="none" stroke="#263238" stroke-linecap="round" stroke-linejoin="round" class="animable"/><path d="M89 408h28a10 10 0 0010-9l4-51a10 10 0 00-10-11H85a10 10 0 00-10 11l4 51a10 10 0 0010 9z" style="transform-origin:103.04px 372.67px" id="ellg3q779ben" fill="#ffde30" stroke="#263238" stroke-linecap="round" stroke-linejoin="round" class="animable"/></g><g id="freepik--Character--inject-14" class="animable" style="transform-origin:283.412px 269.967px;animation:1s 1 forwards cubic-bezier(.36,-.01,.5,1.38) slideRight;animation-delay:0s"><path d="M296 335c-9 0-36-6-36-6h72s-27 6-36 6z" style="transform-origin:295.88px 332.1px" id="eleqasykrg39" fill="#263238" stroke="#263238" stroke-linecap="round" stroke-linejoin="round" class="animable"/><path style="transform-origin:295.88px 337.725px" id="el5f2033memis" fill="#858585" stroke="#263238" stroke-linecap="round" stroke-linejoin="round" d="M288 332h16v11h-16z" class="animable"/><path style="transform-origin:295.88px 367.585px" id="el8gyhgds2tc" fill="#999" stroke="#263238" stroke-linecap="round" stroke-linejoin="round" d="M285 343h21v49h-21z" class="animable"/><path d="M336 315h-14l3-29h14l-3 29z" style="transform-origin:330.61px 300.265px" id="el8gb6ullb49r" fill="#858585" stroke="#263238" stroke-linecap="round" stroke-linejoin="round" class="animable"/><path d="M357 200h-60c-7 0-11 6-10 13a454 454 0 017 65 11 11 0 0011 11h50a13 13 0 0013-11 449 449 0 003-65c-1-7-7-13-14-13z" style="transform-origin:328.862px 244.805px" id="el970ii54nc1" fill="#858585" stroke="#263238" stroke-linecap="round" stroke-linejoin="round" class="animable"/><path d="M360 213a449 449 0 01-2 65 13 13 0 01-13 11h-40a11 11 0 01-11-11 454 454 0 00-7-65c-1-7 3-13 10-13h49c7 0 14 6 14 13z" style="transform-origin:323.577px 244.805px" id="elajp1urucku8" fill="#999" stroke="#263238" stroke-linecap="round" stroke-linejoin="round" class="animable"/><path d="M332 401a2 2 0 01-2 1c-7-1-26-5-34-5s-27 4-34 5a2 2 0 01-2-1h0a5 5 0 014-5c7-2 25-5 32-5s24 3 32 5a5 5 0 014 5z" style="transform-origin:295.88px 396.511px" id="eljtaaxothowq" fill="#263238" stroke="#263238" stroke-linecap="round" stroke-linejoin="round" class="animable"/><path d="M260 397a6 6 0 106 6 6 6 0 00-6-6zm0 9a3 3 0 113-3 3 3 0 01-3 3z" style="transform-origin:259.99px 403.05px" id="elryae4dlsghl" fill="#858585" stroke="#263238" stroke-linecap="round" stroke-linejoin="round" class="animable"/><path d="M296 397a6 6 0 106 6 6 6 0 00-6-6zm0 9a3 3 0 113-3 3 3 0 01-3 3z" style="transform-origin:295.86px 403.05px" id="el6wp4tpjqrp2" fill="#858585" stroke="#263238" stroke-linecap="round" stroke-linejoin="round" class="animable"/><path d="M331 397a6 6 0 106 6 6 6 0 00-6-6zm0 9a3 3 0 113-3 3 3 0 01-3 3z" style="transform-origin:331px 403.05px" id="elbnc4vw9kv2k" fill="#858585" stroke="#263238" stroke-linecap="round" stroke-linejoin="round" class="animable"/><path d="M314 313a473 473 0 01-72-3 8 8 0 00-8 7v1a11 11 0 008 11 474 474 0 0072 3z" style="transform-origin:273.799px 320.703px" id="elneurku6oykd" fill="#999" stroke="#263238" stroke-linecap="round" stroke-linejoin="round" class="animable"/><path d="M352 328l-45 4a6 6 0 01-6-7v-5a7 7 0 016-7l45-4a6 6 0 016 6v6a8 8 0 01-6 7z" style="transform-origin:329.361px 320.569px" id="elv3kkxx4wrzm" fill="#858585" stroke="#263238" stroke-linecap="round" stroke-linejoin="round" class="animable"/><path d="M252 406c0-3-1-10-5-19l-5-18-16 7 5 14-19 8c-3 1-13 4-13 8h0a2 2 0 002 2h49a2 2 0 002-2z" style="transform-origin:225.596px 388.6px" id="elveeqh9ja73g" fill="#fff" stroke="#263238" stroke-linecap="round" stroke-linejoin="round" class="animable"/><path d="M243 395c-2 2-15 4-12 2s0-7 0-7l-19 8c-3 1-13 4-13 8a2 2 0 002 2h49a2 2 0 002-2 44 44 0 00-3-15c-3 0-3 2-6 4z" style="transform-origin:225.591px 399.09px" id="elgb98pa82dw" fill="#ffde30" stroke="#263238" stroke-linecap="round" stroke-linejoin="round" class="animable"/><path d="M264 408h35a2 2 0 002-1c0-3 0-9-3-17v-17l-19 3 3 14s-8 8-11 10c-2 1-8 1-9 7a2 2 0 002 1z" style="transform-origin:281.599px 390.465px" id="elo7h3nyntc6h" fill="#fff" stroke="#263238" stroke-linecap="round" stroke-linejoin="round" class="animable"/><path d="M292 395c-4 3-7 3-5-1s-5-4-5-4-8 8-11 10c-2 1-8 1-9 7a2 2 0 002 1h35a2 2 0 002-1c0-3 0-9-3-17-3 0-2 3-6 5z" style="transform-origin:281.637px 398.995px" id="el28rxfve4qeah" fill="#ffde30" stroke="#263238" stroke-linecap="round" stroke-linejoin="round" class="animable"/><path d="M260 279s-3 3-18 6-45 9-45 21 29 76 29 76 14-2 20-6c0 0-11-46-20-58 0 0 38-5 59-13s9-29 9-29z" style="transform-origin:247.506px 329.14px" id="elz6s2yidw1lc" fill="#263238" stroke="#263238" stroke-linecap="round" stroke-linejoin="round" class="animable"/><path d="M284 277s5 9 1 14-26 14-24 25 11 28 17 66c0 0 13-2 21-6 0 0 2-39-8-55 0 0 28-6 31-15s-2-25-2-30z" style="transform-origin:292.083px 328.955px" id="elxgxtps4ertm" fill="#263238" stroke="#263238" stroke-linecap="round" stroke-linejoin="round" class="animable"/><path d="M267 291a13 13 0 00-2 0" style="transform-origin:265.7px 291.121px" id="elwqln6xhpf4" fill="none" stroke="#7f7f7f" stroke-linecap="round" stroke-linejoin="round" stroke-width=".8" class="animable"/><path d="M268 285s6 2 8 10a1 1 0 01-1 0 14 14 0 00-5-3" style="transform-origin:272.123px 290.277px" id="elfld61n7no5b" fill="none" stroke="#7f7f7f" stroke-linecap="round" stroke-linejoin="round" stroke-width=".8" class="animable"/><path d="M224 317c0-3-14-5-11-8s13 7 13 7" style="transform-origin:219.266px 313.133px" id="elys84avqwbs" fill="none" stroke="#7f7f7f" stroke-linecap="round" stroke-linejoin="round" stroke-width=".8" class="animable"/><path d="M293 330c0-3-14-5-13-9s9 4 9 4" style="transform-origin:286.133px 324.979px" id="ele0605ev6s2" fill="none" stroke="#7f7f7f" stroke-linecap="round" stroke-linejoin="round" stroke-width=".8" class="animable"/><path d="M224 382l2 4a1 1 0 001 0c3 0 16-4 21-7a1 1 0 000-1v-4a1 1 0 00-2 0c-2 1-8 4-21 7a1 1 0 00-1 1z" style="transform-origin:236.325px 379.986px" id="eloexdspxnmek" fill="#999" stroke="#263238" stroke-linecap="round" stroke-linejoin="round" class="animable"/><path d="M276 380a1 1 0 011-1 9 9 0 005 0l18-5a1 1 0 010 0v5a1 1 0 010 0c-2 2-16 7-23 6a1 1 0 010-1z" style="transform-origin:288.291px 379.307px" id="eln6gb86krnkd" fill="#999" stroke="#263238" stroke-linecap="round" stroke-linejoin="round" class="animable"/><path d="M287 287a7 7 0 01-2 4c-3 3-15 9-21 17" style="transform-origin:275.295px 297.4px" id="elc8ml5g1bm7s" fill="none" stroke="#7f7f7f" stroke-linecap="round" stroke-linejoin="round" class="animable"/><path d="M286 282a16 16 0 011 2" style="transform-origin:286.475px 283.125px" id="elogdfqnb3hw" fill="none" stroke="#7f7f7f" stroke-linecap="round" stroke-linejoin="round" class="animable"/><path d="M210 400a17 17 0 011 5h37a6 6 0 012-4" style="transform-origin:229.57px 402.795px" id="el0xkdglzagvnj" fill="none" stroke="#263238" stroke-linecap="round" stroke-linejoin="round" class="animable"/><path d="M272 400s5 1 7 5h19a12 12 0 001-4" style="transform-origin:285.765px 402.795px" id="elfsmo5itgg7s" fill="none" stroke="#263238" stroke-linecap="round" stroke-linejoin="round" class="animable"/><path d="M243 222l1 5 12 52c32 7 65 0 65 0 1-7 0-17-1-27 5-2 9-6 9-15l-3-35c0-7 0-12-11-17-6-3-15-5-26-6-23-3-39 1-45 4-4-2-6 4-6 4-2-2-5 6-5 6-8 9-13 25-15 31a7 7 0 01-3 3c-5 4-2 9-2 9l11 3s5 2 9-5c3-6 9-16 10-12z" style="transform-origin:270.662px 230.08px" id="elwh674hjxzxc" fill="#ffde30" class="animable"/><g style="transform-origin:231.539px 228.198px" id="elfoah19oso78" class="animable" clip-path="url(&quot;#freepik--clip-path--inject-14&quot;)"><path d="M226 235s0-5-4-6 1-2 4-2 2-2 5-6 4-8 6-6 5 3 6 7-4 12-4 12l-7 6-4 2h-6l-2-5z" style="transform-origin:231.539px 228.198px" id="elrh5ty0bepy" class="animable" opacity=".3"/></g><path d="M243 222l1 5 12 52c32 7 65 0 65 0 1-7 0-17-1-27 5-2 9-6 9-15l-3-35c0-7 0-12-11-17-6-3-15-5-26-6-23-3-39 1-45 4-4-2-6 4-6 4-2-2-5 6-5 6-8 9-13 25-15 31a7 7 0 01-3 3c-5 4-2 9-2 9l11 3s5 2 9-5c3-6 9-16 10-12z" style="transform-origin:270.662px 230.08px" id="eld3lzjzowrd9" fill="none" stroke="#263238" stroke-linecap="round" stroke-linejoin="round" class="animable"/><path d="M321 279a181 181 0 000-19c1 15-31 20-32 12s31-20 13-16c-15 4-44 0-51-1l5 24c32 7 65 0 65 0z" style="transform-origin:286.131px 268.741px" id="eltftn1a6emi" class="animable" opacity=".3"/><path d="M307 203s-5 13-5 20-12 12-12 12l16-4a2 2 0 002-3 244 244 0 01-1-25z" style="transform-origin:298.86px 218.895px" id="elqwm2w0wddub" class="animable" opacity=".3"/><path d="M239 200a54 54 0 003 18 1 1 0 01-1 1c-2-1-5-4-7-9" style="transform-origin:238.136px 209.312px" id="elntpcvx2ebd" fill="none" stroke="#263238" stroke-linecap="round" stroke-linejoin="round" stroke-width=".8" class="animable"/><path d="M323 240c-2-8-7-11-10-11a1 1 0 01-1-1c3-1 7-2 11 4" style="transform-origin:317.845px 233.923px" id="elxvonmmdvnol" fill="none" stroke="#263238" stroke-linecap="round" stroke-linejoin="round" stroke-width=".8" class="animable"/><path d="M273 215a2 2 0 01-3 0 2 2 0 113 0z" style="transform-origin:271.23px 215.206px" id="el8u2pmc48p8y" fill="#999" stroke="#263238" stroke-linecap="round" stroke-linejoin="round" stroke-width=".8" class="animable"/><path d="M275 232a2 2 0 11-2-1 2 2 0 012 1z" style="transform-origin:273.26px 232.4px" id="el0fjywak9867e" fill="#999" stroke="#263238" stroke-linecap="round" stroke-linejoin="round" stroke-width=".8" class="animable"/><path d="M280 273a2 2 0 11-2-1 2 2 0 012 1z" style="transform-origin:278.28px 273.43px" id="elx6nt1cvh1cr" fill="#999" stroke="#263238" stroke-linecap="round" stroke-linejoin="round" class="animable"/><path d="M251 244s-5 4-3 4l9-3c3 0-2-2-2-2z" style="transform-origin:252.626px 245.556px" id="el604xa9ipagw" fill="#fff" stroke="#263238" stroke-linecap="round" stroke-linejoin="round" class="animable"/><path d="M280 238a2 2 0 00-2 0h-12l-18-3a2 2 0 00-1 0l-8 3a2 2 0 00-1 0l-5 5a2 2 0 00-1 0l-1 2a2 2 0 001 3h8a2 2 0 001 0l3-3a2 2 0 000 0c1-1 3-4 7-4 0 0-8 4-6 6s7-3 9-3 2 6 13 4a3 3 0 012 0l10 3a2 2 0 002-2c1-3 2-8-1-11z" style="transform-origin:256.492px 242.881px" id="elrejf97cldk" fill="#fff" stroke="#263238" stroke-linecap="round" stroke-linejoin="round" class="animable"/><path d="M249 237h-2a6 6 0 00-3 2l-2 2a6 6 0 00-1 1l-1 2a5 5 0 01-1 1c-1 1-3 3-1 3" style="transform-origin:243.177px 242.473px" id="eluyeeshowdfh" fill="#fff" stroke="#263238" stroke-linecap="round" stroke-linejoin="round" class="animable"/><path d="M243 238h-2a4 4 0 00-2 1l-2 2a3 3 0 000 0l-3 4s-1 3 0 3" style="transform-origin:238.367px 242.75px" id="elyrqc9vl3hoj" fill="#fff" stroke="#263238" stroke-linecap="round" stroke-linejoin="round" class="animable"/><path d="M307 201a230 230 0 001 27 2 2 0 01-2 3 187 187 0 01-24 5" style="transform-origin:295.005px 218.495px" id="elhvgyg1uef1" fill="none" stroke="#263238" stroke-linecap="round" stroke-linejoin="round" class="animable"/><path d="M307 195v3" style="transform-origin:307.32px 196.2px" id="elivoqxgkmm1s" fill="none" stroke="#263238" stroke-linecap="round" stroke-linejoin="round" stroke-width=".8" class="animable"/><path d="M311 185l-3 5" style="transform-origin:309.535px 187.845px" id="elryvru6wqajr" fill="none" stroke="#263238" stroke-linecap="round" stroke-linejoin="round" stroke-width=".8" class="animable"/><path d="M261 179s0-2 4-3 15-3 21 0-6 19-6 19l-5 7-5 4-2-6-3-3s-6-5-5-10l1-8z" style="transform-origin:273.739px 190.252px" id="elj99liv2wlwa" fill="#fff" class="animable"/><path d="M290 179c-1-3-5-4-5-4-20-4-25 4-25 4a30 30 0 000 21s6-3 7 0l3 7a23 23 0 007-6c3-4 11 0 11 0 4-8 2-22 2-22zm-5 0c-8 25-15 26-15 26-2-10-4-8-7-13s-2-11-1-13a2 2 0 010-1c8-4 18-3 22-2a2 2 0 011 3z" style="transform-origin:274.539px 190.495px" id="elt7pzu017wyq" fill="#ffde30" class="animable"/><g style="transform-origin:274.539px 190.495px" id="elge7a1fbw6dc" class="animable" clip-path="url(&quot;#freepik--clip-path-2--inject-14&quot;)"><path d="M290 179c-1-3-5-4-5-4-20-4-25 4-25 4a30 30 0 000 21s6-3 7 0l3 7a23 23 0 007-6c3-4 11 0 11 0 4-8 2-22 2-22zm-5 0c-8 25-15 26-15 26-2-10-4-8-7-13s-2-11-1-13a2 2 0 010-1c8-4 18-3 22-2a2 2 0 011 3z" style="transform-origin:274.539px 190.495px" id="elnes1c0h259" fill="#fff" class="animable" opacity=".4"/></g><path d="M290 179c-1-3-5-4-5-4-20-4-25 4-25 4a30 30 0 000 21s6-3 7 0l3 7a23 23 0 007-6c3-4 11 0 11 0 4-8 2-22 2-22zm-5 0c-8 25-15 26-15 26-2-10-4-8-7-13s-2-11-1-13a2 2 0 010-1c8-4 18-3 22-2a2 2 0 011 3z" style="transform-origin:274.539px 190.495px" id="eltcpbm5b18n" fill="none" stroke="#263238" stroke-linecap="round" stroke-linejoin="round" class="animable"/><path d="M257 141s-18 3-8 15c11 13 8-15 8-15z" style="transform-origin:251.538px 149.979px" id="elsnfnfbfwvlp" fill="#263238" stroke="#263238" stroke-linecap="round" stroke-linejoin="round" class="animable"/><path d="M250 169s-4-17 4-25 16-10 23-6 9 14 8 19-1 24-9 31-15 6-21-4c-4-7-5-9-5-15z" style="transform-origin:266.965px 164.384px" id="elgzhnwszmj1j" fill="#fff" stroke="#263238" stroke-linecap="round" stroke-linejoin="round" class="animable"/><path d="M281 166s-7-7-9-15-3-9-11-5-19-2-16-11c3-10 13 3 23-1s16 3 16 12c0 0 6 6 0 20z" style="transform-origin:265.442px 148.457px" id="eldecxgnj57as" fill="#263238" stroke="#263238" stroke-linecap="round" stroke-linejoin="round" class="animable"/><path d="M279 164s1-9 6-8 1 15-4 13" style="transform-origin:283.021px 162.519px" id="elhzdxru72cna" fill="#fff" stroke="#263238" stroke-linecap="round" stroke-linejoin="round" class="animable"/><path d="M256 168l-1 10c1 2 6 0 6 0" style="transform-origin:258.069px 172.996px" id="elr9w318hiri" fill="#fff" stroke="#263238" stroke-linecap="round" stroke-linejoin="round" class="animable"/><path d="M262 182s5 2 9-4" style="transform-origin:266.305px 179.865px" id="el42ylqt93woq" fill="#fff" stroke="#263238" stroke-linecap="round" stroke-linejoin="round" class="animable"/><path d="M253 168v2l-1-1v-2l1 1z" style="transform-origin:252.37px 168.43px" id="el9tmjfareglj" fill="#263238" class="animable"/><path d="M264 167v2l-1-1v-2l1 1z" style="transform-origin:263.34px 167.55px" id="elc39u9f5hjce" fill="#263238" class="animable"/><path d="M255 168c1 2-2 4-5 5s-5-2-6-4 3-3 6-4 5 1 5 3z" style="transform-origin:249.955px 168.957px" id="el18vxfjuwopo" fill="none" stroke="#263238" stroke-linecap="round" stroke-linejoin="round" class="animable"/><path d="M270 166c0 3-2 5-5 5s-6-1-6-3 2-4 5-4 5 0 6 2z" style="transform-origin:264.105px 167.549px" id="elnl5m14941i" fill="none" stroke="#263238" stroke-linecap="round" stroke-linejoin="round" class="animable"/><path style="transform-origin:257.03px 167.735px" id="elf2fbfjys6xt" fill="#fff" stroke="#263238" stroke-linecap="round" stroke-linejoin="round" d="M255 168h4" class="animable"/><path style="transform-origin:275.03px 161.915px" id="elxwh4g9t4a28" fill="#fff" stroke="#263238" stroke-linecap="round" stroke-linejoin="round" d="M269 165l12-6" class="animable"/><path style="transform-origin:283.105px 176.675px" id="elkhkb4l5nm58" fill="#fff" stroke="#263238" stroke-linecap="round" stroke-linejoin="round" d="M283 176v1" class="animable"/><path d="M249 164s2-2 4-1" style="transform-origin:250.87px 163.508px" id="elc52sxjz39pa" fill="#fff" stroke="#263238" stroke-linecap="round" stroke-linejoin="round" class="animable"/><path d="M267 163s-3-3-6-1" style="transform-origin:263.945px 162.411px" id="el1qdw5exv5u7" fill="#fff" stroke="#263238" stroke-linecap="round" stroke-linejoin="round" class="animable"/><path d="M253 136c5 1 13 3 19 1 10-3 7 8 9 11" style="transform-origin:266.835px 142.13px" id="elzcteu76qbul" fill="none" stroke="#7f7f7f" stroke-linecap="round" stroke-linejoin="round" class="animable"/><path d="M249 134l2 1" style="transform-origin:249.8px 134.715px" id="ellqn7wegm3k" fill="none" stroke="#7f7f7f" stroke-linecap="round" stroke-linejoin="round" class="animable"/><path d="M261 141h1" style="transform-origin:261.51px 141.085px" id="elfrzn9ek0qpa" fill="none" stroke="#7f7f7f" stroke-linecap="round" stroke-linejoin="round" class="animable"/><path d="M250 140s2 3 9 2" style="transform-origin:254.3px 141.145px" id="el90skajq6r2q" fill="none" stroke="#7f7f7f" stroke-linecap="round" stroke-linejoin="round" class="animable"/><path d="M275 146a24 24 0 004 11" style="transform-origin:277.35px 151.815px" id="elr393cbu78rg" fill="none" stroke="#7f7f7f" stroke-linecap="round" stroke-linejoin="round" class="animable"/><path d="M275 143a16 16 0 000 2" style="transform-origin:275.028px 143.815px" id="el04rk2dtphn3r" fill="none" stroke="#7f7f7f" stroke-linecap="round" stroke-linejoin="round" class="animable"/><path d="M284 250a1 1 0 001 2h32c8-1 2-10-5-6-7 3-20-3-28 4z" style="transform-origin:302.104px 248.488px" id="els7ix11zjd3l" class="animable" opacity=".3"/><path d="M208 241s4-11 14-9 2 10-2 11c0 0-1-3-12-2z" style="transform-origin:217.397px 237.107px" id="elr1s209gahf" fill="#fff" stroke="#263238" stroke-linecap="round" stroke-linejoin="round" class="animable"/><path d="M199 247c-1 1-5 1-2-1a15 15 0 017-6c4-2 6-1 11-2s5 1 7 1l5 5c1 2 2 4-1 4s-3-4-5-4-4 4-6 4h0c-2 0-2-1-1-3l2-4a8 8 0 00-4 4c-1 2-1 4-3 4s-2-2 0-6a9 9 0 00-3 3c-1 2-2 2-3 2-2 0-2-3 1-5l-5 4z" style="transform-origin:211.861px 242.945px" id="el9cieqvm4x2j" fill="#fff" stroke="#263238" stroke-linecap="round" stroke-linejoin="round" class="animable"/><path d="M212 240l-2 2" style="transform-origin:210.825px 240.75px" id="els8bgftvw1yn" fill="#fff" stroke="#263238" stroke-linecap="round" stroke-linejoin="round" stroke-width=".8" class="animable"/></g><g id="freepik--Code--inject-14" class="animable" style="transform-origin:250.782px 136.81px;animation:1.5s Infinite linear floating;animation-delay:0s"><path d="M376 146a206 206 0 0119 16" style="transform-origin:385.405px 153.71px" id="elbe4oo50xp1k" fill="none" stroke="#263238" stroke-linecap="round" stroke-linejoin="round" stroke-width=".8" class="animable"/><path d="M369 140l4 3" style="transform-origin:371.04px 141.63px" id="elt9rkz72vu" fill="none" stroke="#263238" stroke-linecap="round" stroke-linejoin="round" stroke-width=".8" class="animable"/><path d="M362 136l4 2" style="transform-origin:364.12px 136.76px" id="el5ob4dk20zul" fill="none" stroke="#263238" stroke-linecap="round" stroke-linejoin="round" stroke-width=".8" class="animable"/><path d="M311 111a203 203 0 0147 22" style="transform-origin:334.64px 122.095px" id="elvs6aw6hh01p" fill="none" stroke="#263238" stroke-linecap="round" stroke-linejoin="round" stroke-width=".8" class="animable"/><path d="M300 108l6 2" style="transform-origin:303.195px 109.03px" id="elp0bv4tgcged" fill="none" stroke="#263238" stroke-linecap="round" stroke-linejoin="round" stroke-width=".8" class="animable"/><path d="M289 106l7 1" style="transform-origin:292.22px 106.42px" id="elpy8yegs28w" fill="none" stroke="#263238" stroke-linecap="round" stroke-linejoin="round" stroke-width=".8" class="animable"/><path d="M279 104l6 1" style="transform-origin:281.76px 104.5px" id="el67eo6utqb6" fill="none" stroke="#263238" stroke-linecap="round" stroke-linejoin="round" stroke-width=".8" class="animable"/><path d="M219 104a206 206 0 0156-1" style="transform-origin:246.61px 103.236px" id="elqeso8r8r7m" fill="none" stroke="#263238" stroke-linecap="round" stroke-linejoin="round" stroke-width=".8" class="animable"/><path d="M210 106l5-1" style="transform-origin:212.915px 105.44px" id="elhc78li447cr" fill="none" stroke="#263238" stroke-linecap="round" stroke-linejoin="round" stroke-width=".8" class="animable"/><path d="M202 108l5-1" style="transform-origin:204.915px 107.085px" id="elfb1stiuu516" fill="none" stroke="#263238" stroke-linecap="round" stroke-linejoin="round" stroke-width=".8" class="animable"/><path d="M193 110l5-1" style="transform-origin:195.125px 109.55px" id="elwl2fw6ta2zk" fill="none" stroke="#263238" stroke-linecap="round" stroke-linejoin="round" stroke-width=".8" class="animable"/><path d="M133 139a203 203 0 0154-27" style="transform-origin:160px 125.445px" id="elzxr4t2yt48g" fill="none" stroke="#263238" stroke-linecap="round" stroke-linejoin="round" stroke-width=".8" class="animable"/><path d="M125 145l5-4" style="transform-origin:127.365px 143.04px" id="elwl4yt42p7p9" fill="none" stroke="#263238" stroke-linecap="round" stroke-linejoin="round" stroke-width=".8" class="animable"/><path d="M117 151l5-4" style="transform-origin:119.5px 149.255px" id="elaj79r6gxnw" fill="none" stroke="#263238" stroke-linecap="round" stroke-linejoin="round" stroke-width=".8" class="animable"/><path d="M106 162l7-7" style="transform-origin:109.22px 158.465px" id="el35iyhoqxiz4" fill="none" stroke="#263238" stroke-linecap="round" stroke-linejoin="round" stroke-width=".8" class="animable"/><circle cx="159" cy="125.3" r="24.9" style="transform-origin:158.96px 125.35px" id="elov2cq69w77g" fill="#ffde30" class="animable" transform="rotate(-77)"/><g style="transform-origin:158.96px 125.35px" id="elbwux9it39s" class="animable" clip-path="url(&quot;#freepik--clip-path-3--inject-14&quot;)"><circle id="elnfkkq385hit" cx="159" cy="125.3" r="24.9" style="transform-origin:158.96px 125.35px" fill="#fff" class="animable" opacity=".3" transform="rotate(-77)"/></g><circle id="elpbe79ko9dfg" cx="159" cy="125.3" r="24.9" style="transform-origin:158.96px 125.35px" fill="none" stroke="#263238" stroke-linecap="round" stroke-linejoin="round" stroke-width=".8" class="animable" transform="rotate(-77)"/><path d="M147 135v-6c0-2 0-2-2-2v-3c2 0 2-1 2-2v-6a3 3 0 014-4h2v3h-1c-1 0-2 0-2 2v5a3 3 0 01-2 3v0a3 3 0 012 3v5c0 2 1 3 2 3h1v3h-2a3 3 0 01-4-4z" style="transform-origin:148.765px 125.375px" id="elkk6l8w692g" fill="#fff" stroke="#263238" stroke-linecap="round" stroke-linejoin="round" stroke-width=".8" class="animable"/><path d="M165 136h1c1 0 2-1 2-3v-5a3 3 0 012-3v0a3 3 0 01-2-3v-5c0-2-1-2-2-2h-1v-3h2a3 3 0 014 4v6c0 1 0 2 2 2v3c-2 0-2 0-2 2v6a3 3 0 01-4 4h-2z" style="transform-origin:169.125px 125.325px" id="el6il4b3v0bka" fill="#fff" stroke="#263238" stroke-linecap="round" stroke-linejoin="round" stroke-width=".8" class="animable"/><rect id="elulmxrv3nc1" width="38.3" height="38.3" x="85" y="157" fill="#ffde30" stroke="#263238" stroke-linecap="round" stroke-linejoin="round" stroke-width=".8" class="animable" rx="12" style="transform-origin:103.585px 176.245px"/><path d="M90 177v-2l7-3v2l-5 2 5 2v2z" style="transform-origin:93.535px 176.245px" id="el1wlcnrcrhp7" fill="#fff" stroke="#263238" stroke-linecap="round" stroke-linejoin="round" stroke-width=".8" class="animable"/><path d="M106 168h2l-7 17h-2z" style="transform-origin:103.58px 176.25px" id="elistwt1gwfbc" fill="#fff" stroke="#263238" stroke-linecap="round" stroke-linejoin="round" stroke-width=".8" class="animable"/><path d="M110 178l5-2-5-2v-2l7 3v2l-7 3z" style="transform-origin:113.625px 176.225px" id="el56djke6giah" fill="#fff" stroke="#263238" stroke-linecap="round" stroke-linejoin="round" stroke-width=".8" class="animable"/><circle cx="335.5" cy="119.7" r="21.2" style="transform-origin:335.46px 119.72px" id="elrcjnez72ci" fill="#ffde30" class="animable" transform="rotate(-77)"/><g style="transform-origin:335.46px 119.72px" id="elnn95ypukrdp" class="animable" clip-path="url(&quot;#freepik--clip-path-4--inject-14&quot;)"><circle cx="335.5" cy="119.7" r="21.2" style="transform-origin:335.46px 119.72px" id="eldb7gwup1xue" class="animable" opacity=".2" transform="rotate(-77)"/></g><circle id="elasukqjyp9wp" cx="335.5" cy="119.7" r="21.2" style="transform-origin:335.46px 119.72px" fill="none" stroke="#263238" stroke-linecap="round" stroke-linejoin="round" stroke-width=".8" class="animable" transform="rotate(-77)"/><path d="M322 124v-9c0-2 2-4 4-4s4 2 4 4v2h-3v-2l-1-1-1 1v9l1 2 1-2v-2h3v2c0 3-1 4-4 4s-4-1-4-4z" style="transform-origin:326.12px 119.72px" id="elzxusund970c" fill="#fff" stroke="#263238" stroke-linecap="round" stroke-linejoin="round" stroke-width=".8" class="animable"/><path d="M334 121h-3v-2h3v-3h2v3h3v2h-3v3h-2z" style="transform-origin:335.18px 119.74px" id="elkn37mclvncb" fill="#fff" stroke="#263238" stroke-linecap="round" stroke-linejoin="round" stroke-width=".8" class="animable"/><path d="M344 121h-4v-2h4v-3h1v3h4v2h-4v3h-1z" style="transform-origin:344.54px 119.74px" id="elzue3pu52lsf" fill="#fff" stroke="#263238" stroke-linecap="round" stroke-linejoin="round" stroke-width=".8" class="animable"/><rect id="elmvcph9uojj8" width="46.4" height="46.4" x="221" y="78" fill="#ffde30" stroke="#263238" stroke-linecap="round" stroke-linejoin="round" stroke-width=".8" class="animable" rx="13.6" style="transform-origin:244.475px 101.435px"/><path d="M231 106v-9c0-3 1-5 4-5s4 2 4 5v1h-3v-2l-1-1-2 1v11l2 1 1-1v-3h3v2c0 3-1 5-4 5s-4-2-4-5z" style="transform-origin:234.765px 101.43px" id="elvj2awhl1sl7" fill="#fff" stroke="#263238" stroke-linecap="round" stroke-linejoin="round" stroke-width=".8" class="animable"/><path d="M240 106v-1h3v1l1 2c1 0 2 0 2-2l-3-4c-2-2-3-3-3-5 0-3 2-5 5-5s4 2 4 5v0h-3v0l-1-2-2 1 3 4 3 6c0 3-2 5-5 5s-4-2-4-5z" style="transform-origin:244.495px 101.47px" id="el06ox19fqp1jc" fill="#fff" stroke="#263238" stroke-linecap="round" stroke-linejoin="round" stroke-width=".8" class="animable"/><path d="M250 106v-1h3v1l1 2c1 0 2 0 2-2l-3-4c-2-2-3-3-3-5 0-3 1-5 4-5s4 2 4 5v0h-2v0c0-2-1-2-2-2l-1 1c0 1 0 3 2 4 3 2 3 4 3 6 0 3-1 5-4 5s-4-2-4-5z" style="transform-origin:254.16px 101.47px" id="el82swn6bt403" fill="#fff" stroke="#263238" stroke-linecap="round" stroke-linejoin="round" stroke-width=".8" class="animable"/><circle cx="391.6" cy="164.6" r="21.2" style="transform-origin:391.6px 164.63px" id="elb48as93kih8" fill="#ffde30" class="animable" transform="rotate(-77)"/><g style="transform-origin:391.6px 164.63px" id="eldnkxc29xhcl" class="animable" clip-path="url(&quot;#freepik--clip-path-5--inject-14&quot;)"><circle id="ell5w8feyfau" cx="391.6" cy="164.6" r="21.2" style="transform-origin:391.6px 164.63px" fill="#fff" class="animable" opacity=".3" transform="rotate(-77)"/></g><circle id="el4k8f174j96g" cx="391.6" cy="164.6" r="21.2" style="transform-origin:391.6px 164.63px" fill="none" stroke="#263238" stroke-linecap="round" stroke-linejoin="round" stroke-width=".8" class="animable" transform="rotate(-77)"/><path d="M383 169v-9c0-2 2-3 4-3s4 1 4 3v2h-3v-2l-1-1-1 1v9l1 1 1-1v-2h3v2c0 2-2 4-4 4s-4-2-4-4z" style="transform-origin:386.89px 164.62px" id="elgxkqzvae5l" fill="#fff" stroke="#263238" stroke-linecap="round" stroke-linejoin="round" stroke-width=".8" class="animable"/><path d="M393 168h-2l1-2h1v-4h-1v-2h1l1-3h2l-1 3h2v-3h2v3h1v2h-1l-1 4h1v2h-1v4h-2v-4h-2v4h-2zm3-2l1-4h-2v4z" style="transform-origin:395.675px 164.645px" id="elsqrbgaaci0b" fill="#fff" stroke="#263238" stroke-linecap="round" stroke-linejoin="round" stroke-width=".8" class="animable"/></g><g id="freepik--Desk--inject-14" class="animable" style="transform-origin:252.445px 307.09px;animation:1s 1 forwards cubic-bezier(.36,-.01,.5,1.38) slideDown;animation-delay:0s"><path style="transform-origin:138.875px 334.88px;animation:1s 1 forwards cubic-bezier(.36,-.01,.5,1.38) slideDown;animation-delay:0s" id="el725azz40bzp" fill="#858585" stroke="#263238" stroke-linecap="round" stroke-linejoin="round" d="M141 409h-3l-1-148h4v148z" class="animable"/><path style="transform-origin:143.58px 334.88px;animation:1s 1 forwards cubic-bezier(.36,-.01,.5,1.38) slideDown;animation-delay:.05555555555555555s" id="elesfu78g5z2o" fill="#999" stroke="#263238" stroke-linecap="round" stroke-linejoin="round" d="M145 409h-4V261h5l-1 148z" class="animable" opacity="0"/><path style="transform-origin:225.885px 256.75px;animation:1s 1 forwards cubic-bezier(.36,-.01,.5,1.38) slideDown;animation-delay:.1111111111111111s" id="el9veyxzq2jxq" fill="#263238" stroke="#263238" stroke-linecap="round" stroke-linejoin="round" d="M99 252h254v9H99z" class="animable" opacity="0"/><path style="transform-origin:377.65px 256.75px;animation:1s 1 forwards cubic-bezier(.36,-.01,.5,1.38) slideDown;animation-delay:.16666666666666666s" id="elp6na6yf8rya" fill="#858585" stroke="#263238" stroke-linecap="round" stroke-linejoin="round" d="M349 252h57v9h-57z" class="animable" opacity="0"/><path style="transform-origin:238.16px 268.68px;animation:1s 1 forwards cubic-bezier(.36,-.01,.5,1.38) slideDown;animation-delay:.2222222222222222s" id="ela78o5kbg32g" fill="#ffde30" stroke="#263238" stroke-miterlimit="10" d="M112 261h253v15H112z" class="animable" opacity="0"/><g style="animation:1s 1 forwards cubic-bezier(.36,-.01,.5,1.38) slideDown;animation-delay:.2777777777777778s"><path style="transform-origin:379.235px 268.68px" id="elwtzack1nme" fill="#ffde30" d="M365 261h29v15h-29z" class="animable" opacity="0" transform="rotate(180)"/></g><g style="transform-origin:379.235px 268.68px;animation:1s 1 forwards cubic-bezier(.36,-.01,.5,1.38) slideDown;animation-delay:.3333333333333333s" id="eldsdxxpqhzc7" class="animable" clip-path="url(&quot;#freepik--clip-path-6--inject-14&quot;)" opacity="0"><path style="transform-origin:379.235px 268.68px" id="el98bcigw8pja" d="M365 261h29v15h-29z" class="animable" opacity=".3" transform="rotate(180)"/></g><g style="animation:1s 1 forwards cubic-bezier(.36,-.01,.5,1.38) slideDown;animation-delay:.38888888888888884s"><path style="transform-origin:379.235px 268.68px" id="eldtjbpqwgk9" fill="none" stroke="#263238" stroke-miterlimit="10" d="M365 261h29v15h-29z" class="animable" opacity="0" transform="rotate(180)"/></g><path style="transform-origin:362.17px 334.88px;animation:1s 1 forwards cubic-bezier(.36,-.01,.5,1.38) slideDown;animation-delay:.4444444444444444s" id="ellipd5j7k52" fill="#858585" stroke="#263238" stroke-linecap="round" stroke-linejoin="round" d="M365 409h-4l-1-148h5v148z" class="animable" opacity="0"/><path style="transform-origin:366.875px 334.88px;animation:1s 1 forwards cubic-bezier(.36,-.01,.5,1.38) slideDown;animation-delay:.5s" id="elbjhro5nx42m" fill="#999" stroke="#263238" stroke-linecap="round" stroke-linejoin="round" d="M368 409h-3V261h4l-1 148z" class="animable" opacity="0"/><path style="transform-origin:109.445px 334.88px;animation:1s 1 forwards cubic-bezier(.36,-.01,.5,1.38) slideDown;animation-delay:.5555555555555556s" id="elbzd39cyip9t" fill="#858585" stroke="#263238" stroke-linecap="round" stroke-linejoin="round" d="M112 409h-4l-1-148h5v148z" class="animable" opacity="0"/><path style="transform-origin:114.15px 334.88px;animation:1s 1 forwards cubic-bezier(.36,-.01,.5,1.38) slideDown;animation-delay:.611111111111111s" id="eld9dm2evrxe" fill="#999" stroke="#263238" stroke-linecap="round" stroke-linejoin="round" d="M116 409h-4V261h5l-1 148z" class="animable" opacity="0"/><path style="transform-origin:391.595px 334.88px;animation:1s 1 forwards cubic-bezier(.36,-.01,.5,1.38) slideDown;animation-delay:.6666666666666666s" id="elfqcfbkkqffr" fill="#858585" stroke="#263238" stroke-linecap="round" stroke-linejoin="round" d="M394 409h-4l-1-148h5v148z" class="animable" opacity="0"/><path style="transform-origin:396.3px 334.88px;animation:1s 1 forwards cubic-bezier(.36,-.01,.5,1.38) slideDown;animation-delay:.7222222222222222s" id="elov4a4drdgm" fill="#999" stroke="#263238" stroke-linecap="round" stroke-linejoin="round" d="M398 409h-4V261h5l-1 148z" class="animable" opacity="0"/><path d="M263 251h-30a1 1 0 01-1-1v-2l32 1v1a1 1 0 01-1 1z" style="transform-origin:248.16px 249.455px;animation:1s 1 forwards cubic-bezier(.36,-.01,.5,1.38) slideDown;animation-delay:.7777777777777777s" id="elt5n9b62jmvq" fill="#858585" stroke="#263238" stroke-linecap="round" stroke-linejoin="round" class="animable" opacity="0"/><path d="M229 251h-60a2 2 0 01-2-1l-13-42a2 2 0 011-2h60a2 2 0 012 1l13 42a2 2 0 01-1 2z" style="transform-origin:192.12px 228.455px;animation:1s 1 forwards cubic-bezier(.36,-.01,.5,1.38) slideDown;animation-delay:.8333333333333333s" id="eluyd20uaeb4q" fill="#999" stroke="#263238" stroke-linecap="round" stroke-linejoin="round" class="animable" opacity="0"/><path d="M233 249l-13-42a2 2 0 00-2-1h-3a2 2 0 012 1l13 42a2 2 0 01-1 2h3a2 2 0 001-2z" style="transform-origin:224.205px 228.455px;animation:1s 1 forwards cubic-bezier(.36,-.01,.5,1.38) slideDown;animation-delay:.8888888888888888s" id="eloh4xj3xu3em" fill="#858585" stroke="#263238" stroke-linecap="round" stroke-linejoin="round" class="animable" opacity="0"/><path d="M196 228a3 3 0 01-3 4 4 4 0 01-5-4 3 3 0 014-3 4 4 0 014 3z" style="transform-origin:192.125px 228.455px;animation:1s 1 forwards cubic-bezier(.36,-.01,.5,1.38) slideDown;animation-delay:.9444444444444444s" id="elzxgs08hetqe" fill="#fff" stroke="#263238" stroke-linecap="round" stroke-linejoin="round" class="animable" opacity="0"/></g><defs><filter id="active" height="200%"><feMorphology in="SourceAlpha" operator="dilate" radius="2" result="DILATED"/><feFlood flood-color="#32DFEC" flood-opacity="1" result="PINK"/><feComposite in="PINK" in2="DILATED" operator="in" result="OUTLINE"/><feMerge><feMergeNode in="OUTLINE"/><feMergeNode in="SourceGraphic"/></feMerge></filter><filter id="hover" height="200%"><feMorphology in="SourceAlpha" operator="dilate" radius="2" result="DILATED"/><feFlood flood-color="red" flood-opacity=".5" result="PINK"/><feComposite in="PINK" in2="DILATED" operator="in" result="OUTLINE"/><feMerge><feMergeNode in="OUTLINE"/><feMergeNode in="SourceGraphic"/></feMerge><feColorMatrix values="0 0 0 0 0 0 1 0 0 0 0 0 0 0 0 0 0 0 1 0"/></filter></defs><defs><clipPath id="freepik--clip-path--inject-14"><path fill="#ffde30" stroke="#263238" stroke-linecap="round" stroke-linejoin="round" d="M243 222l1 5 12 52c32 7 65 0 65 0 1-7 0-17-1-27 5-2 9-6 9-15l-3-35c0-7 0-12-11-17-6-3-15-5-26-6-23-3-39 1-45 4-4-2-6 4-6 4-2-2-5 6-5 6-8 9-13 25-15 31a7 7 0 01-3 3c-5 4-2 9-2 9l11 3s5 2 9-5c3-6 9-16 10-12z"/></clipPath><clipPath id="freepik--clip-path-2--inject-14"><path fill="#ffde30" stroke="#263238" stroke-linecap="round" stroke-linejoin="round" d="M290 179c-1-3-5-4-5-4-20-4-25 4-25 4a30 30 0 000 21s6-3 7 0l3 7a23 23 0 007-6c3-4 11 0 11 0 4-8 2-22 2-22zm-5 0c-8 25-15 26-15 26-2-10-4-8-7-13s-2-11-1-13a2 2 0 010-1c8-4 18-3 22-2a2 2 0 011 3z"/></clipPath><clipPath id="freepik--clip-path-3--inject-14"><circle cx="159" cy="125.3" r="24.9" fill="#ffde30" stroke="#263238" stroke-linecap="round" stroke-linejoin="round" stroke-width=".8" transform="rotate(-77 159 125)"/></clipPath><clipPath id="freepik--clip-path-4--inject-14"><circle cx="335.5" cy="119.7" r="21.2" fill="#ffde30" stroke="#263238" stroke-linecap="round" stroke-linejoin="round" stroke-width=".8" transform="rotate(-77 335 120)"/></clipPath><clipPath id="freepik--clip-path-5--inject-14"><circle cx="391.6" cy="164.6" r="21.2" fill="#ffde30" stroke="#263238" stroke-linecap="round" stroke-linejoin="round" stroke-width=".8" transform="rotate(-77 392 165)"/></clipPath><clipPath id="freepik--clip-path-6--inject-14"><path fill="#ffde30" stroke="#263238" stroke-miterlimit="10" d="M365 261h29v15h-29z" transform="rotate(180 379 269)"/></clipPath></defs></svg>