<svg xmlns="http://www.w3.org/2000/svg" class="A" id="A" viewBox="0 0 500 500" xmlns:v="https://vecta.io/nano"><style><![CDATA[svg#A.A #B{animation:1s 1 forwards cubic-bezier(.36,-0.01,.5,1.38) zoomIn,1.5s Infinite  linear wind}svg#A.A #C{animation:1s 1 forwards cubic-bezier(.36,-0.01,.5,1.38) slideUp}svg#A.A #D{animation:1s 1 forwards cubic-bezier(.36,-0.01,.5,1.38) slideUp,1.5s Infinite  linear floating}svg#A.A #E{animation:1s 1 forwards cubic-bezier(.36,-0.01,.5,1.38) zoomIn,1.5s Infinite  linear floating}svg#A.A #F{animation:1s 1 forwards cubic-bezier(.36,-0.01,.5,1.38) zoomOut,1.5s Infinite  linear floating}svg#A.A #G{animation:1s 1 forwards cubic-bezier(.36,-0.01,.5,1.38) zoomOut,1.5s Infinite  linear floating}svg#A.A #H{animation:1s 1 forwards cubic-bezier(.36,-0.01,.5,1.38) zoomIn,1.5s Infinite  linear floating}svg#A.A #I{animation:1s 1 forwards cubic-bezier(.36,-0.01,.5,1.38) zoomIn,1.5s Infinite  linear floating}svg#A.A #J{animation:1s 1 forwards cubic-bezier(.36,-0.01,.5,1.38) slideUp}svg#A.A #K{animation:1s 1 forwards cubic-bezier(.36,-0.01,.5,1.38) slideRight}svg#A.A #M{animation:1s 1 forwards cubic-bezier(.36,-0.01,.5,1.38) slideLeft}svg#A.A #N{animation:1s 1 forwards cubic-bezier(.36,-0.01,.5,1.38) slideLeft}svg#A.A #O{animation:1s 1 forwards cubic-bezier(.36,-0.01,.5,1.38) slideLeft}svg#A.A #P{animation:1s 1 forwards cubic-bezier(.36,-0.01,.5,1.38) slideLeft}svg#A.A #Q{animation:1s 1 forwards cubic-bezier(.36,-0.01,.5,1.38) slideLeft}svg#A.A #R{animation:1s 1 forwards cubic-bezier(.36,-0.01,.5,1.38) slideLeft}svg#A.A #S{animation:1s 1 forwards cubic-bezier(.36,-0.01,.5,1.38) slideLeft}svg#A.A #T{animation:1s 1 forwards cubic-bezier(.36,-0.01,.5,1.38) slideLeft}svg#A.A #U{animation:1s 1 forwards cubic-bezier(.36,-0.01,.5,1.38) slideLeft}svg#A.A #V{animation:1s 1 forwards cubic-bezier(.36,-0.01,.5,1.38) slideLeft}svg#A.A #L{animation:1s 1 forwards cubic-bezier(.36,-0.01,.5,1.38) slideLeft}@keyframes zoomIn{0%{opacity:0;transform:scale(0.5)}100%{opacity:1;transform:scale(1)}} @keyframes wind{0%{transform:rotate( 0deg )}25%{transform:rotate( 1deg )}75%{transform:rotate( -1deg )}} @keyframes slideUp{0%{opacity:0;transform:translateY(30px)}100%{opacity:1;transform:inherit}} @keyframes floating{0%{opacity:1;transform:translateY(0px)}50%{transform:translateY(-10px)}100%{opacity:1;transform:translateY(0px)}} @keyframes zoomOut{0%{opacity:0;transform:scale(1.5)}100%{opacity:1;transform:scale(1)}} @keyframes slideRight{0%{opacity:0;transform:translateX(30px)}100%{opacity:1;transform:translateX(0)}} @keyframes slideLeft{0%{opacity:0;transform:translateX(-30px)}100%{opacity:1;transform:translateX(0)}}.C{stroke:#263238}.D{stroke-linejoin:round}.E{stroke-linecap:round}.F{stroke-miterlimit:10}.G{fill:none}.H{fill:#ffde34}.I{fill:#fff}.J{opacity:0}.K{fill:#263238}]]></style><g id="B" class="B"><path d="M467.59 142.58C448.29 95.16 411.71 56.82 353 38.41q-6-1.87-12-3.41c-53.47-13.59-157.53-23.39-180.47 45.65-10.17 30.57-14.47 68-36.67 92.8-21.8 24.34-54.61 33.33-80.33 52.38C18.68 244.23 6.72 267.72 9 299c2.92 40.09 14.09 73.26 48.73 96.67 51.87 35.05 121.58 38.84 182.09 41.87 53.65 2.68 112.83 10.08 162.6-15.07 41.48-21 63.06-63.78 73.11-107.34 12.83-55.65 14.12-118.35-7.94-172.55z" class="H"/><g class="I"><path d="M467.59 142.58C448.29 95.16 411.71 56.82 353 38.41q-6-1.87-12-3.41c-53.47-13.59-157.53-23.39-180.47 45.65-10.17 30.57-14.47 68-36.67 92.8-21.8 24.34-54.61 33.33-80.33 52.38C18.68 244.23 6.72 267.72 9 299c2.92 40.09 14.09 73.26 48.73 96.67 51.87 35.05 121.58 38.84 182.09 41.87 53.65 2.68 112.83 10.08 162.6-15.07 41.48-21 63.06-63.78 73.11-107.34 12.83-55.65 14.12-118.35-7.94-172.55z" opacity=".7"/></g></g><g id="C" class="C D E I B"><path d="M76 458.8H52.33"/><path d="M419 458.8H85"/><path d="M458.33 458.8H427"/></g><g id="D" class="B G"><g><g opacity=".3" stroke="#000"><g class="F"><path d="M43.33 301H104v45.33H43.33z"/><path d="M43.33 301H104v8.67H43.33z"/><path d="M52.67 319.67h44.66"/><path d="M52.67 331h44.66"/></g><circle cx="89.49" cy="305" r="1.76"/><circle cx="94.76" cy="305" r="1.76"/><circle cx="100.03" cy="305" r="1.76"/></g></g><g class="F"><g opacity=".3" stroke="#000"><path d="M16 115h27v131.64H16z"/><path d="M16 115h27v6.28H16z"/><path d="M19.14 131.46h8.39v8.39h-8.39z"/><path d="M31.12 131.46h8.39v8.39h-8.39z"/><path d="M19.14 145.24h8.39v8.39h-8.39z"/><path d="M31.12 145.24h8.39v8.39h-8.39z"/><path d="M19.14 159.01h8.39v8.39h-8.39z"/><path d="M31.12 159.01h8.39v8.39h-8.39z"/><path d="M19.14 172.79h8.39v8.39h-8.39z"/><path d="M31.12 172.79h8.39v8.39h-8.39z"/><path d="M19.14 186.57h8.39v8.39h-8.39z"/><path d="M31.12 186.57h8.39v8.39h-8.39z"/><path d="M19.14 200.35h8.39v8.39h-8.39z"/><path d="M31.12 200.35h8.39v8.39h-8.39z"/><path d="M19.14 214.12h8.39v8.39h-8.39z"/><path d="M31.12 214.12h8.39v8.39h-8.39z"/><path d="M19.14 227.9h8.39v8.39h-8.39z"/><path d="M31.12 227.9h8.39v8.39h-8.39z"/></g></g><g class="D"><g opacity=".3" stroke="#000"><path d="M428.53 297h-.81-5.62-.81l-15.8 36.7 7.77 17.95v4.82h11.25.8 11.25v-4.82l7.77-17.95-15.8-36.7z"/><path d="M430.27 333.43a5.36 5.36 0 1 0-5.36 5.36 5.36 5.36 0 0 0 5.36-5.36z"/><path class="E" d="M424.91 328.07v-30.8"/><path d="M413.46 358.61h22.77v6.96h-22.77z"/></g></g></g><g id="E" class="G B"><g stroke="#ffde34"><g class="D E"><path d="M277.87 77.24v49.89"/><path d="M290.31 77.24v49.89"/><path d="M302.75 77.24v49.89"/><path d="M315.25 89.74h-49.89"/><path d="M315.25 102.19h-49.89"/><path d="M315.25 114.63h-49.89"/></g><path class="F" d="M265.38 77.36h49.89v49.89h-49.89z"/><g class="D E"><path d="M327.75 77.24v49.89"/><path d="M340.19 77.24v49.89"/><path d="M352.64 77.24v49.89"/><path d="M365.14 89.74h-49.89"/><path d="M365.14 102.19h-49.89"/><path d="M365.14 114.63h-49.89"/></g><path class="F" d="M315.27 77.36h49.89v49.89h-49.89z"/><g class="D E"><path d="M377.64 77.24v49.89"/><path d="M390.08 77.24v49.89"/><path d="M402.52 77.24v49.89"/><path d="M415.03 89.74h-49.9"/><path d="M415.03 102.19h-49.9"/><path d="M415.03 114.63h-49.9"/></g><path class="F" d="M365.15 77.36h49.89v49.89h-49.89z"/><g class="D E"><path d="M427.52 77.24v49.89"/><path d="M439.97 77.24v49.89"/><path d="M452.41 77.24v49.89"/><path d="M464.91 89.74h-49.89"/><path d="M464.91 102.19h-49.89"/><path d="M464.91 114.63h-49.89"/></g><path class="F" d="M415.04 77.36h49.89v49.89h-49.89z"/><g class="D E"><path d="M277.87 127.36v49.89"/><path d="M290.31 127.36v49.89"/><path d="M302.75 127.36v49.89"/><path d="M315.25 139.86h-49.89"/><path d="M315.25 152.3h-49.89"/><path d="M315.25 164.74h-49.89"/></g><path class="F" d="M265.38 127.48h49.89v49.89h-49.89z"/><g class="D E"><path d="M327.75 127.36v49.89"/><path d="M340.19 127.36v49.89"/><path d="M352.64 127.36v49.89"/><path d="M365.14 139.86h-49.89"/><path d="M365.14 152.3h-49.89"/><path d="M365.14 164.74h-49.89"/></g><path class="F" d="M315.27 127.48h49.89v49.89h-49.89z"/><g class="D E"><path d="M377.64 127.36v49.89"/><path d="M390.08 127.36v49.89"/><path d="M402.52 127.36v49.89"/><path d="M415.03 139.86h-49.9"/><path d="M415.03 152.3h-49.9"/><path d="M415.03 164.74h-49.9"/></g><path class="F" d="M365.15 127.48h49.89v49.89h-49.89z"/><g class="D E"><path d="M427.52 127.36v49.89"/><path d="M439.97 127.36v49.89"/><path d="M452.41 127.36v49.89"/><path d="M464.91 139.86h-49.89"/><path d="M464.91 152.3h-49.89"/><path d="M464.91 164.74h-49.89"/></g><path class="F" d="M415.04 127.48h49.89v49.89h-49.89z"/><g class="D E"><path d="M277.87 177.47v49.89"/><path d="M290.31 177.47v49.89"/><path d="M302.75 177.47v49.89"/><path d="M315.25 189.98h-49.89"/><path d="M315.25 202.42h-49.89"/><path d="M315.25 214.86h-49.89"/></g><path class="F" d="M265.38 177.6h49.89v49.89h-49.89z"/><g class="D E"><path d="M327.75 177.47v49.89"/><path d="M340.19 177.47v49.89"/><path d="M352.64 177.47v49.89"/><path d="M365.14 189.98h-49.89"/><path d="M365.14 202.42h-49.89"/><path d="M365.14 214.86h-49.89"/></g><path class="F" d="M315.27 177.6h49.89v49.89h-49.89z"/><g class="D E"><path d="M377.64 177.47v49.89"/><path d="M390.08 177.47v49.89"/><path d="M402.52 177.47v49.89"/><path d="M415.03 189.98h-49.9"/><path d="M415.03 202.42h-49.9"/><path d="M415.03 214.86h-49.9"/></g><path class="F" d="M365.15 177.6h49.89v49.89h-49.89z"/><g class="D E"><path d="M427.52 177.47v49.89"/><path d="M439.97 177.47v49.89"/><path d="M452.41 177.47v49.89"/><path d="M464.91 189.98h-49.89"/><path d="M464.91 202.42h-49.89"/><path d="M464.91 214.86h-49.89"/></g><path class="F" d="M415.04 177.6h49.89v49.89h-49.89z"/><g class="D E"><path d="M277.87 227.59v49.89"/><path d="M290.31 227.59v49.89"/><path d="M302.75 227.59v49.89"/><path d="M315.25 240.09h-49.89"/><path d="M315.25 252.53h-49.89"/><path d="M315.25 264.98h-49.89"/></g><path class="F" d="M265.38 227.71h49.89v49.89h-49.89z"/><g class="D E"><path d="M327.75 227.59v49.89"/><path d="M340.19 227.59v49.89"/><path d="M352.64 227.59v49.89"/><path d="M365.14 240.09h-49.89"/><path d="M365.14 252.53h-49.89"/><path d="M365.14 264.98h-49.89"/></g><path class="F" d="M315.27 227.71h49.89v49.89h-49.89z"/><g class="D E"><path d="M377.64 227.59v49.89"/><path d="M390.08 227.59v49.89"/><path d="M402.52 227.59v49.89"/><path d="M415.03 240.09h-49.9"/><path d="M415.03 252.53h-49.9"/><path d="M415.03 264.98h-49.9"/></g><path class="F" d="M365.15 227.71h49.89v49.89h-49.89z"/><g class="D E"><path d="M427.52 227.59v49.89"/><path d="M439.97 227.59v49.89"/><path d="M452.41 227.59v49.89"/><path d="M464.91 240.09h-49.89"/><path d="M464.91 252.53h-49.89"/><path d="M464.91 264.98h-49.89"/></g><g class="F"><path d="M415.04 227.71h49.89v49.89h-49.89z"/></g></g><path class="C F" d="M264.86 77.74h200v200h-200z"/></g><g id="F" class="G B"><g stroke="#ffde34" class="D E"><path d="M104.13 77.24v200"/><path d="M154 77.24v200"/><path d="M203.88 77.24v200"/><path d="M254 127.36H54"/><path d="M254 177.24H54"/><path d="M254 227.11H54"/></g><path class="C F" d="M54.08 77.74h200v200h-200z"/></g><g id="G" class="C B"><g class="G"><g class="F"><path d="M314.52 126.96H415v100.48H314.52z"/><path d="M351.98 164.42h25.58V190h-25.58z"/></g><circle cx="365.16" cy="177.37" r="24.89"/><g class="F"><path d="M314.52 126.96l100.49 100.49"/><path d="M415.01 126.96L314.52 227.45"/></g></g><g class="D I"><path d="M311.89 124.33h5.26v5.26h-5.26z"/><path d="M412.4 124.33h5.26v5.26h-5.26z"/><path d="M363.04 124.33h5.26v5.26h-5.26z"/><path d="M311.89 224.73h5.26v5.26h-5.26z"/><path d="M412.4 224.73h5.26v5.26h-5.26z"/><path d="M311.89 175.11h5.26v5.26h-5.26z"/><path d="M412.4 175.11h5.26v5.26h-5.26z"/><path d="M363.04 224.73h5.26v5.26h-5.26z"/></g></g><g id="H" class="B C F G"><g><path d="M125.14 148.43h57.55v57.55h-57.55z" transform="rotate(45)"/></g><g><path d="M104.13 127.42h99.57v99.57h-99.57z"/><path d="M137.76 161.06h32.3v32.3h-32.3z"/></g></g><g id="I" class="B"><path d="M417.52 231.37l4.54 20.37a.72.72 0 0 0 1.34.12l3-6.21a.69.69 0 0 1 .68-.4l6.86.38a.72.72 0 0 0 .53-1.24l-15.77-13.73a.72.72 0 0 0-1.18.71z" class="K"/><path class="C D I" d="M430.11 249.46h6.14v6.14h-6.14z" stroke-width=".75"/><g class="K"><path d="M429.62 248.98h.92v.92h-.92z"/><path d="M432.73 248.98h.92v.92h-.92z"/><path d="M435.72 248.98h.92v.92h-.92z"/><path d="M429.62 252.08h.92v.92h-.92z"/><path d="M432.73 252.08h.92v.92h-.92z"/><path d="M435.72 252.08h.92v.92h-.92z"/><path d="M429.62 255.07h.92v.92h-.92z"/><path d="M432.73 255.07h.92v.92h-.92z"/><path d="M435.72 255.07h.92v.92h-.92z"/></g></g><g id="J" class="C B"><g class="D E G"><path d="M127.13 350.09l8.59 82.31"/><path d="M134.03 416.31l-3.59-3.77"/></g><path d="M131.63 413.77a4.41 4.41 0 0 0-1.55-3.3c-1-.9-6.26-3.11-6.76-1.26-.55 2.02 4.84 5.98 8.31 4.56z" class="F H"/><g class="D E G"><path d="M131.63 413.77l-5.01-3.12"/><path d="M134.92 424.81l-3.5-2.91"/></g><path d="M132.6 423.13a4.36 4.36 0 0 0-1.55-3.3c-1-.89-6.26-3.11-6.76-1.25-.54 2.01 4.85 5.97 8.31 4.55z" class="F H"/><g class="D E G"><path d="M132.6 423.13l-5-3.12"/><path d="M131.6 392.88l-3.54-3.18"/></g><path d="M129.24 390.93a4.43 4.43 0 0 0-1.55-3.31c-1-.89-6.26-3.1-6.76-1.25-.54 2.02 4.84 5.97 8.31 4.56z" class="F H"/><g class="D E G"><path d="M129.24 390.93l-5.01-3.12"/><path d="M132.58 402.83l-3.54-3.77"/></g><path d="M130.22 400.29a4.41 4.41 0 0 0-1.55-3.3c-1-.9-6.26-3.11-6.76-1.26-.54 2.02 4.84 5.98 8.31 4.56z" class="F H"/><g class="D E G"><path d="M130.22 400.29l-5.01-3.12"/><path d="M130.02 378.1l-3.55-3.61"/></g><path d="M127.66 375.72a4.41 4.41 0 0 0-1.55-3.3c-1-.89-6.26-3.11-6.76-1.25s4.84 5.97 8.31 4.55z" class="F H"/><g class="D E G"><path d="M127.66 375.72l-5.01-3.12"/><path d="M128.31 361.84l-3.43-2.62"/></g><path d="M126.06 360.45a4.41 4.41 0 0 0-1.55-3.3c-1-.9-6.26-3.11-6.76-1.26-.54 2.02 4.84 5.98 8.31 4.56z" class="F H"/><g class="D E G"><path d="M126.06 360.45l-5.01-3.12"/><path d="M133.68 411.11l2.96-4.83"/></g><path d="M135.74 407.73a4.42 4.42 0 0 1 .84-3.55c.79-1.08 5.48-4.33 6.35-2.62.95 1.86-3.5 6.84-7.19 6.17z" class="F H"/><g class="D E G"><path d="M135.74 407.73l3.52-3.3"/><path d="M131.11 386.48l2.96-4.83"/></g><path d="M133.17 383.1a4.43 4.43 0 0 1 .83-3.55c.8-1.08 4.47-3.79 5.34-2.08s-2.48 6.3-6.17 5.63z" class="F H"/><g class="D E G"><path d="M133.17 383.1l4.51-4.31"/><path d="M129.98 375.65l2.96-4.83"/></g><path d="M132 372.28a4.46 4.46 0 0 1 .83-3.56c.8-1.08 5.49-4.33 6.36-2.62s-3.46 6.84-7.19 6.18z" class="F H"/><g class="D E G"><path d="M132.04 372.28l4.51-4.32"/><path d="M128.33 359.78l2.96-4.83"/></g><path d="M130.38 356.4a4.42 4.42 0 0 1 .84-3.55c.79-1.08 5.48-4.33 6.35-2.62s-3.5 6.84-7.19 6.17z" class="F H"/><path class="D E G" d="M130.38 356.4l4.51-4.31"/><path d="M127.06 349.64a4.46 4.46 0 0 1 .83-3.56c.8-1.08 5.49-4.33 6.36-2.62.95 1.86-3.5 6.85-7.19 6.18z" class="F H"/><path class="D E G" d="M127.06 349.64l4.51-4.31"/><path d="M127.32 349.82a4.39 4.39 0 0 1-3.44-1.2c-1-.9-3.74-5.91-1.94-6.6s6.43 4.21 5.38 7.8z" class="F H"/><g class="D E G"><path d="M127.32 349.82l-3.81-4.93"/><path d="M140 327.91V432"/><path d="M149.79 361.43l-8.54 82.31"/><path d="M143.05 426.93l-1.97-2.26"/></g><path d="M141.08 424.67a4.42 4.42 0 0 0-.84-3.55c-.8-1.08-5.49-4.33-6.36-2.62-.94 1.86 3.51 6.84 7.2 6.17z" class="F H"/><g class="D E G"><path d="M141.08 424.67l-4.26-4.09"/><path d="M145.46 403.43l-2.93-2.45"/></g><path d="M143.45 401.82a4.42 4.42 0 0 0-.84-3.55c-.79-1.08-5.49-4.33-6.36-2.62-.94 1.86 3.51 6.85 7.2 6.17z" class="F H"/><g class="D E G"><path d="M143.45 401.82l-4.26-4.08"/><path d="M144.53 414.56l-2.96-4.82"/></g><path d="M142.47 411.18a4.39 4.39 0 0 0-.83-3.55c-.8-1.08-5.49-4.32-6.36-2.61-.94 1.86 3.51 6.84 7.19 6.16z" class="F H"/><g class="D E G"><path d="M142.47 411.18l-4.25-4.08"/><path d="M146.95 388.43l-2.83-3.26"/></g><path d="M145 386.62a4.41 4.41 0 0 0-.83-3.56c-.8-1.08-5.49-4.32-6.36-2.61-.93 1.86 3.53 6.84 7.19 6.17z" class="F H"/><g class="D E G"><path d="M145.02 386.62l-4.25-4.09"/><path d="M148.43 374.13l-2.73-4.24"/></g><path d="M146.61 371.34a4.42 4.42 0 0 0-.84-3.55c-.79-1.08-5.48-4.33-6.35-2.62s3.5 6.83 7.19 6.17z" class="F H"/><g class="D E G"><path d="M146.61 371.34l-4.26-4.08"/><path d="M143.64 422.49l3.89-4.12"/></g><path d="M146.34 419.61a4.43 4.43 0 0 1 1.55-3.31c1-.89 6.26-3.11 6.76-1.25s-4.84 5.95-8.31 4.56z" class="F H"/><g class="D E G"><path d="M146.34 419.61l5.31-3.29"/><path d="M146.19 397.85l3.89-4.11"/></g><path d="M148.9 395a4.41 4.41 0 0 1 1.55-3.3c1-.9 6.26-3.11 6.76-1.26.54 1.99-4.84 5.95-8.31 4.56z" class="F H"/><g class="D E G"><path d="M148.9 394.97l5.3-3.29"/><path d="M147.32 387.03l3.89-4.12"/></g><path d="M150 384.15a4.43 4.43 0 0 1 1.55-3.31c1-.89 6.26-3.11 6.76-1.26.57 2.02-4.82 5.98-8.31 4.57z" class="F H"/><g class="D E G"><path d="M150.02 384.15l5.3-3.29"/><path d="M148.92 370.35l3.93-3.31"/></g><g class="F H"><path d="M151.67 368.27a4.42 4.42 0 0 1 1.55-3.3c1-.89 6.26-3.11 6.76-1.26.54 2.02-4.84 5.98-8.31 4.56z"/><path d="M151.67 368.27l5.3-3.28"/><path d="M149.81 361a4.43 4.43 0 0 1 1.55-3.31c1-.89 6.26-3.11 6.76-1.25s-4.84 5.94-8.31 4.56z"/></g><path class="D E G" d="M149.81 360.97l5.3-3.29"/><path d="M150 361.2a4.41 4.41 0 0 1-3.12-1.88c-.79-1.09-2.44-6.55-.55-6.86 2.1-.33 5.47 5.44 3.67 8.74z" class="F H"/><g class="D E G"><path d="M150.03 361.2l-2.72-5.61"/><path d="M139.86 416.16l-3.22-4.3"/></g><path d="M137.69 413.2a4.4 4.4 0 0 0-1.2-3.44c-.9-1-5.91-3.74-6.6-1.95-.74 1.95 4.2 6.44 7.8 5.39z" class="F H"/><g class="D E G"><path d="M137.69 413.2l-4.66-3.62"/><path d="M139.97 395.4l-3.33-3.11"/></g><path d="M137.69 393.64a4.39 4.39 0 0 0-1.2-3.44c-.9-1-5.91-3.74-6.6-1.95-.74 1.95 4.2 6.44 7.8 5.39z" class="F H"/><g class="D E G"><path d="M137.69 393.64l-4.66-3.62"/><path d="M140.08 373.82l-3.44-4.49"/></g><path d="M137.69 370.68a4.41 4.41 0 0 0-1.2-3.45c-.9-1-5.91-3.74-6.6-2-.74 2 4.2 6.5 7.8 5.45z" class="F H"/><g class="D E G"><path d="M137.69 370.68l-4.66-3.63"/><path d="M139.86 356.94l-3.22-2.9"/></g><path d="M137.69 355.39a4.41 4.41 0 0 0-1.2-3.45c-.9-1-5.91-3.74-6.6-1.95-.74 1.95 4.2 6.45 7.8 5.4z" class="F H"/><g class="D E G"><path d="M137.69 355.39l-4.66-3.63"/><path d="M140.04 341.65l-3.34-2.45"/></g><path d="M137.69 340a4.39 4.39 0 0 0-1.2-3.44c-.9-1-5.91-3.74-6.6-1.95-.74 1.98 4.2 6.47 7.8 5.39z" class="F H"/><g class="D E G"><path d="M137.69 340.03l-4.66-3.62"/><path d="M140.68 421.36l2.77-3.53"/></g><path d="M142.4 419.18a4.41 4.41 0 0 1 1.2-3.45c.9-1 5.91-3.74 6.6-2 .8 2-4.2 6.5-7.8 5.45z" class="F H"/><g class="D E G"><path d="M142.4 419.18l4.94-3.82"/><path d="M140.01 391.21l3.44-4.49"/></g><path d="M142.4 388.07a4.41 4.41 0 0 1 1.2-3.45c.9-1 5.91-3.74 6.6-1.95.8 1.95-4.2 6.45-7.8 5.4z" class="F H"/><g class="D E G"><path d="M142.4 388.07l4.94-3.82"/><path d="M140.01 375.86l3.44-4.5"/></g><path d="M142.4 372.71a4.41 4.41 0 0 1 1.2-3.45c.9-1 5.91-3.73 6.6-1.94s-4.2 6.44-7.8 5.39z" class="F H"/><g class="D E G"><path d="M142.4 372.71l4.94-3.82"/><path d="M140.01 355.56l3.44-4.49"/></g><path d="M142.4 352.41a4.4 4.4 0 0 1 1.2-3.44c.9-1 5.91-3.74 6.6-2 .8 2.03-4.2 6.49-7.8 5.44z" class="F H"/><g class="D E G"><path d="M142.4 352.41l4.94-3.81"/><path d="M140.16 338.05l3.37-2.64"/></g><path d="M142.4 336.46a4.41 4.41 0 0 1 1.2-3.45c.9-1 5.91-3.74 6.6-1.95.8 1.94-4.2 6.45-7.8 5.4z" class="F H"/><path class="D E G" d="M142.4 336.46l4.94-3.82"/><path d="M139.8 329.38a4.41 4.41 0 0 1 1.2-3.45c.9-1 5.9-3.73 6.59-1.94s-4.19 6.44-7.79 5.39z" class="F H"/><path class="D E G" d="M139.8 329.38l4.93-3.82"/><path d="M140 329.59a4.41 4.41 0 0 1-3.3-1.55c-.89-1-3.1-6.26-1.25-6.76 2.06-.54 6.01 4.85 4.55 8.31z" class="F H"/><g class="D"><path class="E G" d="M140.04 329.59l-3.28-5.3"/><path class="K" d="M144.28 459h-11.02l-1.38-27.84h13.78L144.28 459z"/></g></g><g id="K" class="B"><g class="C D"><path d="M369.25 289.76l-23.32.19s-1.54-.19-1.93 1c0 0-4 10.21-4.24 13.87s.78 3.09-.77 7.9-6 16.19-8.48 25.44c-3.36 12.44-4.24 25.63-4.45 38.47 0 2.06-1.27 19.78 1.94 19.78 2.66 0 27.19 3.25 27.49-1.48 1.18-18.85-2.23-37.28 4.32-55.61 2.54-7.12 5.46-14.64 7.62-22.09s2.57-15.23 3.94-22.84c.97-5.21-2.12-4.63-2.12-4.63z" class="K"/><g class="I"><path d="M371.54 292.07c-.23-2.69-2.29-2.31-2.29-2.31l-23.32.19s-1.54-.19-1.93 1c0 0-4 10.21-4.24 13.87a17.83 17.83 0 0 0 .09 2.9l.49.76s.77 6.75 10 7.13 14.46-3.85 16.39-7.9 2.69-10.6 4.24-14.45a9.4 9.4 0 0 1 .57-1.19z"/><path d="M366.13 299.6c-1.56 5.63-.63 7.19-2.19 16.89s-7.19 20.64-9.38 30.65-1.25 45.35-.94 46.92a13.12 13.12 0 0 1 .13 2.51c1.05-.39 1.69-.94 1.74-1.67 1.18-18.85-2.23-37.28 4.32-55.61 2.54-7.12 5.46-14.64 7.62-22.09s2.57-15.2 3.94-22.81c.59-3.2-.34-4.21-1.15-4.52h0a41.54 41.54 0 0 0-4.09 9.73z"/><path d="M286.56 332.13s-3.11 4.66-2.88 5.77a16.85 16.85 0 0 0 .44 1.77l-25.31-4.48c-1.78 0-7.3-.84-10.4.93s-8.43 5.1-9.32 5.77-2 2-.88 2 2.21-1.55 2.21-1.55l4.39-1.52s-3.75 1.88-3.2 2.32a1.55 1.55 0 0 0 1.76.33c.56-.33 3.2-1.43 3.2-1.43a8.87 8.87 0 0 0 4.3-1l4.63-2.65 28.34 12.24c3.42 1.24 5.18 1.1 5.74 1s1.21-12.57 2-15.22-1.97-8.34-5.02-4.28z"/></g><path d="M286.56 332.13s-3.11 4.66-2.88 5.77a16.85 16.85 0 0 0 .44 1.77 19.22 19.22 0 0 1 5.24 5.89l.9 1.76c.39-3.9.82-9.28 1.3-10.92.77-2.64-1.95-8.33-5-4.27z" class="H"/><path d="M302.62 300.17l-7.19 5.34c-2.89 2.12-5.14 7.38-5.14 8.73s-5.08 13.46-3.73 17.89 2.73 16.65 2.19 19.3c-2.19 10.64-.39 10.41-.39 10.41h36.42a167.66 167.66 0 0 1 1-20.43c1.15-8.67 3.66-11.76 3.66-25.05s-14.44-15.81-18.15-16.19a57.9 57.9 0 0 0-8.67 0z" class="I"/><path d="M286.56 332.13c1.22 4 1.38 14.42 2 18.28l-.05-4.57c-.19-5.59 0-13.49 5.59-26.4 4.3-9.92 6.76-16.42 7.68-18.9-1.94.92-4.09 3.28-6.39 5-2.89 2.12-5.14 7.38-5.14 8.73s-5.04 13.43-3.69 17.86z" class="H"/><g class="I"><path d="M256 365.22s-10.75 0-12.49 1-7.75 29.24-12.75 40.73c0 0-4 10-7.24 14.74-1.14 1.66-6.5 3.75-10.25 4.75s-5.24 1.75-4.75 2.75 8.25 2.75 11.75 3.24 5.75-.49 6.74-.49 2.25 1.24 4.25.49.75-6 .75-9 3.75-13.74 8-18.24 12.49-21.74 14.24-27l2.25-6.5" class="E"/><path d="M253.42 371.22a10.43 10.43 0 0 0-6.37 10c0 7.73 11.37 56.81 11.37 59.54a15.54 15.54 0 0 1-5.42 12.72c-.81.75-5.56 4.09-5 5.62.9 2.53 7.25.07 8.8-.59 2.79-1.2 5.9-6.12 8.94-5.94 3.23.2 3.63-1.36 3.63-4.54s-3.51-7.19-4-11.73-1.9-20.6-.54-28.27c1.24-7.08-5-25-5-25s19.3 11.81 36.32 7.69-15.87-11.33-20.87-15-17.77-7.22-21.86-4.5z"/><path d="M247.51,370.72s8.5,9.24,19.24,13.49L270.5,366s-16-2.75-27,.25" class="E"/></g><path d="M324.78 361.84a167.66 167.66 0 0 1 1-20.43c1.15-8.67 3.66-11.76 3.66-25.05 0-12.38-12.51-15.41-17.2-16.08a28 28 0 0 0-2.65 5.67c-.39 1.93-8.67 18.69-10.6 31.22-1.54 10-.25 20.76.33 24.67h-10.96l-2.47 3.78-17.48-.76-5.16 20.35 19 8c8 3.3 24 6.31 33.62 3.29 7.92-2.49 13.82-6.77 12.75-15.7a128.91 128.91 0 0 0-3.84-18.96z" class="H"/><g class="E G"><path d="M301.82 300.54l-9.99 14.47 1.16 3.27-3.28 3.66-.58 10.6"/><path d="M311.1 305.95l-.58 11.56-4.04 2.51 1.54 3.08-7.9 14.84"/></g><path d="M292.09 269.18l-2.61 7.84c-.61 2.29 1 4.57.32 5.55s-3.58 3.69-2.93 5a4.83 4.83 0 0 0 2.29 2s1.3 8.4 4.89 9.38 5.34 0 5.34 0 .21 2.28.21 4.24-.33 5.23-.33 5.23l8 1.36 5-9.45s-.85-8.57 1.11-11.83 1.63-13.72.65-15.35-12.8-13.44-21.94-3.97z" class="I"/><path d="M302.34 261.39l-6.89.67c-2.77.23-5.63 2.25-5.09 4.33l1.27 4.11s6.69-3.11 7.33-1.7-2.33 4.9-.06 7 5.56 3.52 4.34 5.49-.15 3.44 1.15 3.05 2.66-3.2 3.88-.57-1.13 10.08-.18 11.19 8 1.34 9.89-.18c2.2-1.78 8.86-4.31 9-10.6.26-8.31-3.74-17.15-9.47-21.23s-13.79-2-13.79-2z" class="K"/></g><g class="E G D"><g stroke="#fff" stroke-width=".75"><path d="M308.25,266.58a11.57,11.57,0,0,1,2.36,1"/><path d="M296.09,267.41a23.37,23.37,0,0,1,10.17-1.25"/></g><g class="C"><path d="M299.29,361.84s-.88,9.84.94,11.2,15,5.45,23.63,2.73"/><path d="M288.87 365.77l8.18 1.36"/></g></g><g class="H C D"><path d="M256.75 458.51c2.79-1.2 5.9-6.12 8.94-5.94 3.23.2 3.63-1.36 3.63-4.54a9.72 9.72 0 0 0-1.07-3.78 4.41 4.41 0 0 0-.25.43 16.49 16.49 0 0 1-9 8 7.18 7.18 0 0 1-5 0l-.38.16c-.21.22-.43.43-.67.65-.81.75-5.56 4.09-5 5.62.9 2.52 7.25.06 8.8-.6z"/><path d="M216.69 425.37l-3.41 1.07c-3.75 1-5.24 1.75-4.75 2.75s8.25 2.75 11.75 3.24 5.75-.49 6.74-.49 2.25 1.24 4.25.49c1.68-.62 1.07-4.41.83-7.39a37.25 37.25 0 0 1-8.07 1.65c-5.03.4-6.85-.84-7.34-1.32z"/></g><g class="K"><path d="M321.09,444.43l-.16-.12V420h3.13V406.26H312.49V420h3.12v24.66l-27.68,8.82v2.19a2.51,2.51,0,1,0,5,0v-.31l23.14-2.69V456a2.19,2.19,0,0,0,4.38,0v-3.43l24.09,2.8v.31a2.5,2.5,0,1,0,5,0V453.5Z" class="C D"/><rect x="282.18" y="392.83" width="75.08" height="15.96" rx="4" class="C D"/><path d="M293.53 282.85c.07 1-.15 1.82-.49 1.84s-.65-.77-.71-1.77.15-1.82.48-1.84.66.77.72 1.77z"/></g><g class="C D"><g class="E"><g class="G"><path d="M292,279.11a2.55,2.55,0,0,1,2.87.6"/><path d="M291.05,290.59a5.76,5.76,0,0,0,3.53-.54"/></g><path d="M304,284.93s3-3.81,4.13-2,1.33,5.79-.49,7.77-3.31.17-3.31.17" class="I"/><path d="M317.27 313.39L309 333.63l-3.07 5.37v3l-3.36 1.26-.42 2.1-38.87-9.41a12.41 12.41 0 0 0-2.1-.33l-3.86-.27a3.34 3.34 0 0 0-1.81.37l-13 6.7.42 1.68h2.52s8-1.26 9.24-2.1 4.2-3.36 4.2-3.36l37.81 16.38a59.62 59.62 0 0 0 8.82 2.94c1.68.42 8-5.46 8-5.46a3.55 3.55 0 0 0 3.36-1.26 8 8 0 0 0 1.26-4.2l10.08-18.48" class="H"/></g><g class="I"><path d="M255.51 335.68l-13 6.7.42 1.68h2.52s8-1.26 9.24-2.1 4.2-3.36 4.2-3.36l37.81 16.38a59.62 59.62 0 0 0 8.82 2.94c.83.21 2.8-1.13 4.57-2.53a14.48 14.48 0 0 0-2.36-4.77 33.58 33.58 0 0 0-5.57-5.3l-38.87-9.41a12.41 12.41 0 0 0-2.1-.33l-3.86-.27a3.34 3.34 0 0 0-1.82.37z"/><g class="E"><path d="M247 340.1l-4.06 1.9a19 19 0 0 0-2.78 2.79s.5 1 1.14.51l1.62-1.24 3.19-1.05"/><path d="M246.24,341.24s-2.66,1-2.91,1.52-1.15,2.16-.77,2.41,1.27.25,1.53-.25l.25-.51,5.58-1.14"/></g></g></g></g><g id="L" class="C D"><path id="M" d="M173.38 460.08h-2.9l-.97-101.2h4.84l-.97 101.2z" class="I"/><path id="N" d="M265.42 460.08h-2.91l-.97-101.2h4.85l-.97 101.2z" class="I J"/><path id="O" d="M167.86 351.66h101.95v10.01H167.86z" class="I J"/><g id="P" class="J B I"><path d="M197.76 308.11h32.47v37.51h-32.47z" transform="rotate(180)"/></g><path id="Q" d="M232.75 347.3h-36.67v-33.87h17.36l19.31 33.87z" class="J K"/><path d="M188.22,349.18h21a1.52,1.52,0,0,0,0-3h-21a3.59,3.59,0,0,1-3.46-4.55l7.45-26.67a1.52,1.52,0,0,0-2.93-.82l-7.44,26.67a6.62,6.62,0,0,0,6.38,8.4Z" id="R" class="I J"/><g id="S" class="J B I"><path d="M194.48 279.35h4.78v61.85h-4.78z" transform="rotate(173.17)"/></g><path d="M190.82,279.86s-8.44,30.1,7.36,61.4Z" id="T" class="I J"/><path id="U" d="M166.16 347.27h105.33V352H166.16z" class="I J"/><path id="V" d="M260.46 345.36l-33.89-.84v2.62h33.89v-1.78z" class="I J"/></g></svg>